<?xml version="1.0" encoding="UTF-8"?>
<svg id="_圖層_1" xmlns="http://www.w3.org/2000/svg" version="1.1" viewBox="0 0 526.3 1071">
  <!-- Generator: Adobe Illustrator 29.1.0, SVG Export Plug-In . SVG Version: 2.1.0 Build 142)  -->
  <defs>
    <style>
      .st0 {
        font-size: 18px;
      }

      .st0, .st1, .st2, .st3, .st4, .st5 {
        isolation: isolate;
      }

      .st0, .st2, .st4, .st5 {
        font-family: SourceHanSansTW-Bold-B5pc-H, 'Source Han Sans TW';
        font-weight: 700;
      }

      .st6 {
        fill: #1b174c;
      }

      .st7 {
        fill: #6b2e56;
      }

      .st8 {
        fill: #3e3672;
      }

      .st2 {
        font-size: 19px;
      }

      .st2, .st5 {
        fill: #fff;
      }

      .st9 {
        fill: #8e2840;
      }

      .st10, .st4 {
        fill: #024097;
      }

      .st11 {
        fill: #022a5b;
      }

      .st12 {
        fill: #421735;
      }

      .st3 {
        font-family: SourceHanSansTC-Regular-B5pc-H, 'Source Han Sans TC';
        font-size: 16px;
      }

      .st4, .st5 {
        font-size: 25px;
      }

      .st13 {
        fill: #bb2024;
      }

      .st14 {
        fill: #561325;
      }
    </style>
  </defs>
  <rect class="st10" y="0" width="526.3" height="42.1" rx="21" ry="21"/>
  <g class="st1">
    <text class="st5" transform="translate(26 31.2)"><tspan x="0" y="0">AI發展的進程持續，未來仍有很長的路要走</tspan></text>
  </g>
  <path class="st13" d="M316,393.5h37.5c7.7,0,13.9,6.2,13.9,13.8h0c0,7.6-6.2,13.9-13.9,13.9h-37.5c-7.7,0-13.9-6.2-13.9-13.8h0c0-7.6,6.2-13.9,13.9-13.9Z"/>
  <g>
    <polygon class="st13" points="216.9 993.5 216.9 1041.1 68.5 971.9 68.5 924.2 216.9 993.5"/>
    <polygon class="st14" points="68.5 923.4 68.5 971.1 229.2 901.8 229.1 854.2 68.5 923.4"/>
    <polygon class="st9" points="229.2 841.2 229.1 901.5 47 813.8 47 753.4 229.2 841.2"/>
    <polygon class="st12" points="47 752.3 47 812.7 250.6 724.9 250.6 664.6 47 752.3"/>
    <polygon class="st7" points="250.6 653.3 250.6 724.4 28.6 620.8 28.7 549.7 250.6 653.3"/>
    <polygon class="st6" points="28.6 548.5 28.7 619.7 268.9 516.1 268.8 444.9 28.6 548.5"/>
    <polygon class="st8" points="268.9 432.6 268.8 515.5 8.9 394.9 8.9 312.1 268.9 432.6"/>
    <polygon class="st11" points="8.9 310.7 8.9 393.5 288.6 272.9 288.6 190 8.9 310.7"/>
    <polygon class="st10" points="0 142.1 0 55 288.6 181.7 288.6 268.7 0 142.1"/>
    <polygon class="st13" points="274.9 1036.7 215.2 958.6 215.2 1071 274.9 1036.7"/>
  </g>
  <g>
    <g class="st1">
      <text class="st0" transform="translate(300.6 191.4)"><tspan x="0" y="0">第一階段</tspan></text>
    </g>
    <g class="st1">
      <text class="st4" transform="translate(378.8 191.4)"><tspan x="0" y="0">雲端伺服器</tspan></text>
    </g>
    <g class="st1">
      <text class="st3" transform="translate(300.6 222)"><tspan x="0" y="0">高速運算伺服器取代通用型伺服</tspan></text>
      <text class="st3" transform="translate(300.6 250)"><tspan x="0" y="0">器，受惠大型雲端伺服器廠商、</tspan></text>
      <text class="st3" transform="translate(300.6 278)"><tspan x="0" y="0">AI晶片、伺服器業</tspan></text>
    </g>
  </g>
  <g>
    <g class="st1">
      <text class="st0" transform="translate(300.6 450.1)"><tspan x="0" y="0">第二階段</tspan></text>
    </g>
    <g class="st1">
      <text class="st4" transform="translate(378.9 450.1)"><tspan x="0" y="0">應用體驗</tspan></text>
    </g>
    <g class="st1">
      <text class="st3" transform="translate(300.6 480.7)"><tspan x="0" y="0">大數據應用在內容推薦、</tspan></text>
      <text class="st3" transform="translate(300.6 508.7)"><tspan x="0" y="0">廣告、個人化推薦，如</tspan></text>
      <text class="st3" transform="translate(300.6 536.7)"><tspan x="0" y="0">Meta</tspan></text>
    </g>
  </g>
  <g>
    <g class="st1">
      <text class="st0" transform="translate(300.6 665.1)"><tspan x="0" y="0">第三階段</tspan></text>
    </g>
    <g class="st1">
      <text class="st4" transform="translate(378.8 665.1)"><tspan x="0" y="0">數位分身</tspan></text>
    </g>
    <g class="st1">
      <text class="st3" transform="translate(300.6 695.6)"><tspan x="0" y="0">AI助理分身，如自動駕駛</tspan></text>
      <text class="st3" transform="translate(300.6 723.6)"><tspan x="0" y="0">、遠端醫療等輔助應用</tspan></text>
    </g>
  </g>
  <g>
    <g class="st1">
      <text class="st0" transform="translate(300.6 843)"><tspan x="0" y="0">第四階段</tspan></text>
    </g>
    <g class="st1">
      <text class="st4" transform="translate(378.9 843)"><tspan x="0" y="0">生成式</tspan></text>
    </g>
    <g class="st1">
      <text class="st3" transform="translate(300.6 873.5)"><tspan x="0" y="0">AI仿生人工智慧機械人，</tspan></text>
      <text class="st3" transform="translate(300.6 901.5)"><tspan x="0" y="0">大規模應用到生活各領域</tspan></text>
    </g>
  </g>
  <g class="st1">
    <text class="st2" transform="translate(311.6 414.7)"><tspan x="0" y="0">NOW</tspan></text>
  </g>
</svg>