<?xml version="1.0" encoding="UTF-8"?>
<svg id="_圖層_1" data-name="圖層_1" xmlns="http://www.w3.org/2000/svg" version="1.1" viewBox="0 0 526.3 526">
  <!-- Generator: Adobe Illustrator 29.1.0, SVG Export Plug-In . SVG Version: 2.1.0 Build 142)  -->
  <defs>
    <style>
      .st0, .st1 {
        font-family: SourceHanSansTW-Regular-B5pc-H, 'Source Han Sans TW';
        font-size: 15px;
      }

      .st2 {
        fill: none;
        stroke: #727272;
        stroke-linecap: round;
        stroke-linejoin: round;
      }

      .st1 {
        glyph-orientation-vertical: 0deg;
        text-orientation: upright;
        writing-mode: tb;
      }

      .st3, .st4 {
        fill: #fff;
      }

      .st5 {
        fill: #024097;
      }

      .st4 {
        font-family: SourceHanSansTW-Bold-B5pc-H, 'Source Han Sans TW';
        font-size: 25px;
        font-weight: 700;
      }
    </style>
  </defs>
  <g>
    <path d="M.8,97.4c0-1.4,1-2.4,2-2.9h0c-.8-.6-1.5-1.4-1.5-2.5,0-1.6,1.3-2.7,3-2.7s3,1.2,3,2.8-.8,2.1-1.5,2.6h0c.9.6,1.9,1.4,1.9,2.8s-1.4,2.9-3.4,2.9-3.5-1.2-3.5-2.9ZM6.5,97.5c0-1.4-1.3-1.9-2.9-2.5-.9.6-1.5,1.3-1.5,2.3s1,2,2.3,2,2.1-.8,2.1-1.9ZM6.2,92.2c0-1-.7-1.9-1.9-1.9s-1.8.7-1.8,1.7,1.2,1.8,2.5,2.3c.7-.7,1.1-1.4,1.1-2.2Z"/>
    <path d="M9,92.4c0-2.2,1-3.4,2.5-3.4s2.5,1.2,2.5,3.4-1,3.5-2.5,3.5-2.5-1.3-2.5-3.5ZM13,92.4c0-1.8-.6-2.6-1.5-2.6s-1.5.9-1.5,2.6.6,2.6,1.5,2.6,1.5-.9,1.5-2.6ZM17.9,89h.9l-6.1,11.4h-.9l6.1-11.4ZM16.7,96.9c0-2.2,1-3.4,2.5-3.4s2.5,1.2,2.5,3.4-1,3.5-2.5,3.5-2.5-1.3-2.5-3.5ZM20.7,96.9c0-1.8-.6-2.6-1.5-2.6s-1.5.9-1.5,2.6.6,2.6,1.5,2.6,1.5-.9,1.5-2.6Z"/>
  </g>
  <g>
    <path d="M.9,179.8c0-4.3,1.9-6,4.1-6s2,.5,2.6,1.1l-.8.9c-.4-.5-1.1-.8-1.8-.8-1.5,0-2.8,1.2-2.8,4.6.7-.8,1.6-1.3,2.5-1.3,1.8,0,3,1.1,3,3.3s-1.4,3.4-3.1,3.4-3.7-1.7-3.7-5.1ZM2.3,180.6c.2,2.1,1,3.2,2.4,3.2s1.9-.9,1.9-2.4-.7-2.3-2-2.3-1.5.4-2.2,1.4Z"/>
    <path d="M9,177c0-2.2,1-3.4,2.5-3.4s2.5,1.2,2.5,3.4-1,3.5-2.5,3.5-2.5-1.3-2.5-3.5ZM13,177c0-1.8-.6-2.6-1.5-2.6s-1.5.9-1.5,2.6.6,2.6,1.5,2.6,1.5-.9,1.5-2.6ZM17.9,173.5h.9l-6.1,11.4h-.9l6.1-11.4ZM16.7,181.4c0-2.2,1-3.4,2.5-3.4s2.5,1.2,2.5,3.4-1,3.5-2.5,3.5-2.5-1.3-2.5-3.5ZM20.7,181.4c0-1.8-.6-2.6-1.5-2.6s-1.5.9-1.5,2.6.6,2.6,1.5,2.6,1.5-.9,1.5-2.6Z"/>
  </g>
  <g>
    <path d="M5.2,266.3H.4v-.9l4.6-6.8h1.5v6.6h1.5v1.1h-1.5v3h-1.3v-3ZM5.2,265.2v-3.1c0-.6,0-1.5,0-2h0c-.3.5-.6,1-.9,1.5l-2.5,3.7h3.4Z"/>
    <path d="M9,261.5c0-2.2,1-3.4,2.5-3.4s2.5,1.2,2.5,3.4-1,3.5-2.5,3.5-2.5-1.3-2.5-3.5ZM13,261.5c0-1.8-.6-2.6-1.5-2.6s-1.5.9-1.5,2.6.6,2.6,1.5,2.6,1.5-.9,1.5-2.6ZM17.9,258.1h.9l-6.1,11.4h-.9l6.1-11.4ZM16.7,266c0-2.2,1-3.4,2.5-3.4s2.5,1.2,2.5,3.4-1,3.5-2.5,3.5-2.5-1.3-2.5-3.5ZM20.7,266c0-1.8-.6-2.6-1.5-2.6s-1.5.9-1.5,2.6.6,2.6,1.5,2.6,1.5-.9,1.5-2.6Z"/>
  </g>
  <g>
    <path d="M.8,353c3.2-3.2,5-5.1,5-6.9s-.7-2.1-2-2.1-1.7.6-2.3,1.3l-.8-.8c.9-1,1.8-1.6,3.2-1.6s3.2,1.2,3.2,3.1-1.8,4-4.4,6.7c.6,0,1.2-.1,1.8-.1h3.1v1.2H.8v-.8Z"/>
    <path d="M9,346.1c0-2.2,1-3.4,2.5-3.4s2.5,1.2,2.5,3.4-1,3.5-2.5,3.5-2.5-1.3-2.5-3.5ZM13,346.1c0-1.8-.6-2.6-1.5-2.6s-1.5.9-1.5,2.6.6,2.6,1.5,2.6,1.5-.9,1.5-2.6ZM17.9,342.6h.9l-6.1,11.4h-.9l6.1-11.4ZM16.7,350.5c0-2.2,1-3.4,2.5-3.4s2.5,1.2,2.5,3.4-1,3.5-2.5,3.5-2.5-1.3-2.5-3.5ZM20.7,350.5c0-1.8-.6-2.6-1.5-2.6s-1.5.9-1.5,2.6.6,2.6,1.5,2.6,1.5-.9,1.5-2.6Z"/>
  </g>
  <g>
    <path d="M.9,433c0-3.6,1.3-5.5,3.4-5.5s3.4,1.9,3.4,5.5-1.3,5.6-3.4,5.6-3.4-2-3.4-5.6ZM6.4,433c0-3.1-.8-4.4-2.1-4.4s-2.1,1.3-2.1,4.4.8,4.5,2.1,4.5,2.1-1.3,2.1-4.5Z"/>
    <path d="M9,430.6c0-2.2,1-3.4,2.5-3.4s2.5,1.2,2.5,3.4-1,3.5-2.5,3.5-2.5-1.3-2.5-3.5ZM13,430.6c0-1.8-.6-2.6-1.5-2.6s-1.5.9-1.5,2.6.6,2.6,1.5,2.6,1.5-.9,1.5-2.6ZM17.9,427.2h.9l-6.1,11.4h-.9l6.1-11.4ZM16.7,435.1c0-2.2,1-3.4,2.5-3.4s2.5,1.2,2.5,3.4-1,3.5-2.5,3.5-2.5-1.3-2.5-3.5ZM20.7,435.1c0-1.8-.6-2.6-1.5-2.6s-1.5.9-1.5,2.6.6,2.6,1.5,2.6,1.5-.9,1.5-2.6Z"/>
  </g>
  <g>
    <path d="M8.5,57.5c-.1.2-.2.3-.3.5,1.9,2.2,4.1,3.5,6.4,4.5-.3.2-.6.6-.7.9-2.3-1.1-4.3-2.4-6.3-4.6-1.6,1.9-3.9,3.6-6.2,4.6-.2-.3-.5-.7-.8-.9,2.8-1.1,5.5-3.2,6.9-5.4l1,.5ZM8.2,69.4h5.7v1H1.2v-1h1.9v-5.5h1.1v5.5h2.8v-8.2h1.2v3.4h4.3v1h-4.3v3.7Z"/>
    <path d="M21.2,68.4c-1.1.8-3,1.6-4.6,1.9-.1-.3-.5-.6-.7-.8,1.5-.3,3.4-.8,4.4-1.5l.8.4ZM29,66.4v.9h-6v3.6h-1.1v-3.6h-5.9v-.9h5.9v-1.1h-4.5v-.9h4.5v-1.1h-5.3v-.9h3.2c-.1-.4-.4-1-.8-1.4l.8-.2h-3.9v-.9h2.4c-.2-.6-.7-1.5-1.2-2.2l.9-.3c.5.7,1.1,1.6,1.3,2.2l-.8.3h1.8v-2.7h1v2.7h1.8v-2.7h1.1v2.7h1.8l-.6-.2c.4-.6.9-1.6,1.2-2.3l1.1.3c-.4.8-.9,1.6-1.3,2.2h2.3v.9h-3.9l1,.3c-.3.5-.7,1-1,1.4h3.4v.9h-5.4v1.1h4.7v.9h-4.7v1.1h6ZM20.2,60.7c.3.5.7,1.1.8,1.5l-.6.2h4.1l-.5-.2c.3-.4.7-1,.9-1.5h-4.7ZM24.7,68c1.4.5,3.3,1.2,4.3,1.7l-.7.7c-1-.5-2.9-1.2-4.3-1.8l.7-.6Z"/>
    <path d="M35.1,65.9c-.2-.4-.7-1.3-1.1-1.9v6.9h-1v-6.6c-.5,1.5-1.2,3.1-1.9,4-.1-.3-.4-.8-.6-1.1.8-1.1,1.7-3,2.2-4.7h-2v-1h2.2v-2.4c-.6.1-1.2.3-1.8.3,0-.3-.2-.6-.3-.9,1.5-.3,3.3-.7,4.3-1.2l.7.9c-.5.2-1.2.4-1.8.6v2.7h1.7v1h-1.7v.3c.4.4,1.6,1.9,1.8,2.3l-.7.9ZM42.9,69.7c.3,0,.4-.2.4-1.8.2.2.7.3,1,.4-.1,1.9-.4,2.4-1.3,2.4h-1.3c-1,0-1.3-.3-1.3-1.4v-3.6h-1.4c-.3,2.4-.9,4.2-3.4,5.3-.1-.3-.4-.7-.7-.9,2.2-.9,2.8-2.4,3-4.4h-1.2v-4.3c-.2.2-.4.4-.5.5-.2-.2-.6-.6-.8-.8,1.1-.9,2.1-2.3,2.8-3.7l1,.3c-.6,1.3-1.4,2.5-2.3,3.5h6v4.4h-1.4v3.6c0,.4,0,.4.4.4h1ZM37.9,64.6h3.9v-2.4h-3.9v2.4ZM43.5,61.9c-.6-1.1-1.9-2.9-3-4.1l.8-.5c1.2,1.2,2.5,2.9,3.1,4l-.9.6Z"/>
    <path d="M56.8,67c-.7.8-1.7,1.5-2.8,2,1.6.5,3.5.8,5.4.9-.2.2-.4.6-.6.9-2.1-.2-4.2-.6-6.1-1.3-2,.7-4.3,1.1-6.5,1.4-.1-.3-.3-.7-.5-.9,2-.2,4-.5,5.7-.9-1-.4-1.9-.9-2.6-1.5-.7.6-1.5,1-2.3,1.4-.1-.2-.5-.6-.7-.8,1.6-.6,3.1-1.6,3.9-2.9l1,.3c-.1.2-.3.5-.5.7h8.5v.9h-2ZM46.9,63.4c-.1.9-.3,1.8-.6,2.5-.1,0-.5-.3-.6-.4.2-.6.4-1.5.4-2.3l.8.2ZM49.5,63c0-.2,0-.4-.2-.6-2.6.4-3,.5-3.2.6,0-.2-.2-.6-.3-.8.3,0,.6-.3.9-.6.2-.2.6-.6,1-1.1-1.2,0-1.5.1-1.6.2,0-.2-.2-.6-.3-.8.2,0,.4-.2.6-.5.2-.2.9-1.2,1.3-2.2l.8.3c-.5.8-1,1.7-1.5,2.3h1.2c.3-.4.6-.8.8-1.2l.8.4c-.8,1.1-1.7,2.2-2.6,3.1l1.8-.2c-.1-.3-.2-.6-.4-.9l.7-.2c.3.7.6,1.6.8,2.1l-.7.2ZM47.7,65.5c0-.6-.1-1.4-.3-2.1h.7c.2.5.3,1.4.3,2l-.7.2ZM49.3,65.2c0-.5-.3-1.3-.5-1.9l.7-.2c.2.6.4,1.4.5,1.9l-.7.2ZM49.6,67c.8.6,1.9,1.2,3.1,1.6,1.1-.4,2.1-.9,2.8-1.6h-5.9ZM54.8,59.1h-4.6v-.7h2c-.1-.3-.3-.7-.5-1l.8-.3c.3.4.5.9.7,1.3h1.7v.7ZM54.5,60.5h-4v-.7h4v.7ZM54.5,61.8h-4v-.7h4v.7ZM50.5,65.3v-2.7h3.8v2.7h-3.8ZM51.3,64.6h2.3v-1.3h-2.3v1.3ZM58.5,62.9c0-.2,0-.4-.2-.7-2.7.4-3.1.5-3.3.6,0-.2-.2-.6-.3-.8.3,0,.6-.3.9-.6.2-.2.6-.6,1-1.1-1.2.1-1.5.2-1.6.2,0-.2-.2-.6-.3-.8.2,0,.4-.2.6-.4.2-.3.9-1.2,1.4-2.2l.8.3c-.4.8-1,1.7-1.5,2.3h1.2c.3-.4.6-.8.8-1.2l.8.3c-.8,1.1-1.7,2.2-2.5,3l1.8-.2c-.1-.3-.2-.6-.4-.9l.7-.2c.3.7.7,1.6.8,2.2l-.7.2ZM56,63.4c-.1.8-.3,1.7-.5,2.3-.1-.1-.5-.3-.7-.4.2-.6.3-1.4.4-2.1l.8.2ZM56.8,65.4c0-.6-.1-1.5-.3-2.1h.7c.2.5.3,1.4.3,2l-.7.2ZM58.5,65.3c0-.6-.3-1.5-.5-2.2l.7-.2c.3.7.5,1.6.6,2.2l-.7.2Z"/>
    <path d="M74,60.6s0,.4,0,.6c-.2,6.3-.3,8.4-.8,9-.3.4-.6.5-1,.6-.4,0-1.1,0-1.8,0,0-.3-.1-.8-.3-1,.7,0,1.4,0,1.7,0s.4,0,.5-.2c.3-.4.5-2.4.7-7.9h-2.1c-.2,4-.9,7.3-3.5,9.2-.2-.2-.6-.6-.8-.8.2-.2.4-.3.6-.5-2.3.3-4.6.5-6.3.7l-.2-1c.9,0,2-.2,3.3-.3v-1.3h-2.8v-.9h2.8v-.9h-2.8v-4.5h2.8v-.9h-3.2v-.9h3.2v-1c-1,0-1.9.1-2.8.2,0-.2-.1-.6-.3-.8,2.2-.1,4.9-.4,6.5-.7l.6.9c-.8.2-1.8.3-2.9.4v1.1h3.2v.9h-3.2v.9h2.9v4.5h-2.9v.9h2.9v.9h-2.9v1.2c1,0,2-.2,3-.3h0c1.3-1.7,1.7-4.1,1.8-6.9h-1.8v-1h1.8c0-1.1,0-2.1,0-3.3h1c0,1.1,0,2.2,0,3.3h3.2ZM62,63.4h1.9v-1.1h-1.9v1.1ZM63.9,65.2v-1.1h-1.9v1.1h1.9ZM64.9,62.3v1.1h2v-1.1h-2ZM66.9,64.1h-2v1.1h2v-1.1Z"/>
    <path d="M89.2,62.2h-1.4v7.2c0,.7-.2,1-.6,1.2-.4.2-1.1.2-2.4.2,0-.3-.2-.8-.4-1.1.9,0,1.7,0,1.9,0,.3,0,.4,0,.4-.3v-7.2h-3.6v-.9h-7.4v-1h2.3v-.8l-.7.5c-.3-.5-.8-1.4-1.4-2l.7-.5c.5.6,1.1,1.3,1.4,1.9v-2.4h.9v3.2h1.2v-3.2h.9v2.4c.5-.5,1.1-1.4,1.4-1.9l.9.5c-.5.7-1.2,1.5-1.7,2l-.6-.4v.6h2.2v.8h3.5v-4h1.1v4h1.4v1ZM80,68.6c1-.1,2.1-.3,3.1-.4v1c-2.6.4-5.4.8-7.3,1l-.2-1.1c.9-.1,2-.2,3.3-.4v-1.8h-2.4v-.9h2.4v-1.5h-2.7v-.9h3.9c.3-.6.8-1.5,1-2.1l1,.4c-.3.6-.7,1.2-1,1.8h1.7v.9h-2.8v1.5h2.4v.9h-2.4v1.6ZM77.8,61.4c.5.5,1,1.2,1.2,1.7l-.8.5c-.2-.5-.7-1.2-1.1-1.8l.8-.4ZM84.9,67.1c-.1-.9-.7-2.3-1.3-3.4l.9-.3c.6,1.1,1.2,2.5,1.4,3.4l-1,.4Z"/>
    <path d="M104.2,63.7v1h-6.3c0,.4-.1.8-.2,1.2h6.2v1h-6.5c-.7,2.1-2.3,3.3-6.2,4,0-.3-.4-.8-.6-1,3.5-.5,4.9-1.5,5.6-3h-5v-1h5.4c0-.4.1-.8.2-1.2h-5.9v-1h6v-1.3h-4.7v-1h4.7v-1.2h-5.5v-1h3.2c-.2-.5-.7-1.2-1.2-1.7l1-.4c.6.6,1.1,1.3,1.3,1.9l-.5.2h3.9c.5-.6,1-1.5,1.3-2.1l1.1.3c-.4.6-.8,1.3-1.2,1.8h3.2v1h-5.5v1.2h4.8v1h-4.8v1.3h6.2ZM98.1,67c2.1.8,4.8,2.1,6.1,3l-.5,1c-1.3-.9-4-2.3-6.1-3.1l.5-.8Z"/>
    <path d="M118.7,57.8v13h-1.1v-.7h-10.3v.7h-1.1v-13h12.4ZM117.6,69.2v-10.3h-10.3v10.3h10.3ZM112.5,66.9c-1.6.3-3.1.6-4.4.8l-.2-.8c1.1-.2,2.8-.5,4.5-.8v.8ZM116.3,62.5c-.4,1.4-.9,2.6-1.7,3.7.3.8.7,1.3,1.2,1.4.2,0,.4-.6.5-1.5.2.2.5.4.7.5-.2,1.6-.7,2.2-1.5,1.9-.6-.1-1.2-.7-1.6-1.5-.6.7-1.2,1.2-2,1.7-.1-.2-.5-.5-.7-.7.9-.5,1.6-1.2,2.3-1.9-.4-1.2-.7-2.7-.8-4.4h-4.6v-.8h4.5c0-.5,0-1-.1-1.6h1c0,.5,0,1.1,0,1.6h3.3v.8h-3.2c.1,1.3.3,2.5.6,3.5.5-.8.9-1.7,1.1-2.8l.9.2ZM112,62.6v2.9h-3.3v-2.9h3.3ZM111.2,63.3h-1.7v1.5h1.7v-1.5ZM116,60.7c-.3-.3-1-.8-1.6-1l.5-.6c.6.3,1.3.7,1.6,1l-.5.6Z"/>
    <path d="M125.1,65.3c-.2-.5-.7-1.4-1.1-2.1v7.6h-1v-7.6c-.5,1.7-1.2,3.4-1.9,4.5-.1-.3-.4-.8-.6-1.1.9-1.2,1.9-3.6,2.3-5.6h-1.9v-1h2.1v-2.9h1v2.9h1.6v1h-1.6v.8c.4.5,1.5,2.3,1.8,2.7l-.7.8ZM128.2,67.7c-.6,1-1.4,2.1-2.2,2.7-.2-.2-.6-.5-.9-.6.8-.6,1.6-1.5,2.1-2.4l1,.3ZM128.3,58.8h-2.6v-.9h8.4v.9h-2.7v1h2.5v3.5h-7.8v-3.5h2.3v-1ZM130.3,66.9v3.9h-1v-3.9h-3.6v-.9h8.4v.9h-3.8ZM126.7,64.9v-.9h6.4v.9h-6.4ZM127,62.4h1.3v-1.8h-1.3v1.8ZM130.5,58.8h-1.4v1h1.4v-1ZM129.1,62.4h1.4v-1.8h-1.4v1.8ZM131.3,60.6v1.8h1.5v-1.8h-1.5ZM132.2,67.4c.8.8,1.6,1.8,2,2.5l-.9.5c-.4-.7-1.2-1.8-2-2.5l.8-.5Z"/>
    <path d="M149.2,62.8v.9h-13.4v-.9h4.6v-2.9h-3.8v-.9h2.8c-.2-.4-.6-1-.9-1.5l.9-.4c.5.5.9,1.1,1.1,1.6l-.6.3h4.3c.4-.5.8-1.3,1.1-1.8l1.1.4c-.3.5-.6,1.1-.9,1.5h3v.9h-4v2.9h4.7ZM138.3,60.1c.5.7,1,1.5,1.2,2.2l-1,.4c-.1-.6-.6-1.5-1.1-2.2l.9-.3ZM137.9,64.7h9.3v6.1h-1.1v-.5h-7.1v.5h-1.1v-6.2ZM139,65.6v1.5h7.1v-1.5h-7.1ZM146.1,69.4v-1.5h-7.1v1.5h7.1ZM141.5,62.8h1.9v-2.9h-1.9v2.9ZM145.4,62.4c.4-.6,1-1.6,1.2-2.3l1,.3c-.4.8-.9,1.7-1.4,2.3l-.9-.3Z"/>
    <path d="M150.4,68.4l.7-.9c.6.6,1.4,1.2,2.7,1.2s2.3-.9,2.3-2.4-.9-2.4-2.3-2.4-1.2.2-1.8.7l-.7-.5.3-5.1h5.4v1.2h-4.2l-.3,3.2c.5-.3,1-.4,1.6-.4,1.8,0,3.3,1,3.3,3.4s-1.7,3.6-3.6,3.6-2.8-.7-3.5-1.5Z"/>
    <path d="M159.1,64.3c0-3.6,1.3-5.5,3.4-5.5s3.4,1.9,3.4,5.5-1.3,5.6-3.4,5.6-3.4-2-3.4-5.6ZM164.6,64.3c0-3.1-.8-4.4-2.1-4.4s-2.1,1.3-2.1,4.4.8,4.5,2.1,4.5,2.1-1.3,2.1-4.5Z"/>
    <path d="M167.4,64.3c0-3.6,1.3-5.5,3.4-5.5s3.4,1.9,3.4,5.5-1.3,5.6-3.4,5.6-3.4-2-3.4-5.6ZM172.9,64.3c0-3.1-.8-4.4-2.1-4.4s-2.1,1.3-2.1,4.4.8,4.5,2.1,4.5,2.1-1.3,2.1-4.5Z"/>
    <path d="M183.4,57.5c-.1.2-.2.3-.3.5,1.9,2.2,4.1,3.5,6.4,4.5-.3.2-.6.6-.7.9-2.3-1.1-4.3-2.4-6.3-4.6-1.6,1.9-3.9,3.6-6.2,4.6-.2-.3-.5-.7-.8-.9,2.8-1.1,5.5-3.2,6.9-5.4l1,.5ZM183.2,69.4h5.7v1h-12.7v-1h1.9v-5.5h1.1v5.5h2.8v-8.2h1.2v3.4h4.3v1h-4.3v3.7Z"/>
    <path d="M196.2,68.4c-1.1.8-3,1.6-4.6,1.9-.1-.3-.5-.6-.7-.8,1.5-.3,3.4-.8,4.4-1.5l.8.4ZM204,66.4v.9h-6v3.6h-1.1v-3.6h-5.9v-.9h5.9v-1.1h-4.5v-.9h4.5v-1.1h-5.3v-.9h3.2c-.1-.4-.4-1-.8-1.4l.8-.2h-3.9v-.9h2.4c-.2-.6-.7-1.5-1.2-2.2l.9-.3c.5.7,1.1,1.6,1.3,2.2l-.8.3h1.8v-2.7h1v2.7h1.8v-2.7h1.1v2.7h1.8l-.6-.2c.4-.6.9-1.6,1.2-2.3l1.1.3c-.4.8-.9,1.6-1.3,2.2h2.3v.9h-3.9l1,.3c-.3.5-.7,1-1,1.4h3.4v.9h-5.4v1.1h4.7v.9h-4.7v1.1h6ZM195.2,60.7c.3.5.7,1.1.8,1.5l-.6.2h4.1l-.5-.2c.3-.4.7-1,.9-1.5h-4.7ZM199.6,68c1.4.5,3.3,1.2,4.3,1.7l-.7.7c-1-.5-2.9-1.2-4.3-1.8l.7-.6Z"/>
    <path d="M209,59.7c-.7,1.2-1.6,2.3-2.4,3.1-.2-.2-.7-.5-1-.7,1.4-1.2,2.7-3.1,3.5-5l1.1.3c-.2.4-.4.9-.6,1.3h9.2v1h-9.8ZM217.2,65.5c0,1-.1,1.8-.2,2.4h1.8v1h-1.9c-.1.8-.3,1.2-.4,1.4-.3.4-.6.5-1.1.5-.4,0-1.2,0-1.9,0,0-.3-.1-.6-.3-.9.8,0,1.5,0,1.7,0,.3,0,.4,0,.6-.2.1-.1.2-.4.3-.9h-8s-.6,0-.6,0c.2-.9.4-2.1.6-3.4h-2.1v-1h2.3c.1-1.2.3-2.3.4-3.3h9s0,.4,0,.5c0,1,0,2-.1,2.8h2.1v1h-2.1ZM215.9,67.9c0-.6.1-1.4.2-2.4h-7.2c-.1.9-.3,1.7-.4,2.4h4.6c-.6-.6-1.7-1.3-2.7-1.8l.6-.6c1,.5,2.2,1.3,2.8,1.9l-.5.6h2.5ZM209.3,62.2c-.1.8-.2,1.6-.3,2.4h4.5c-.6-.5-1.7-1.3-2.7-1.7l.6-.6c1,.4,2.1,1.1,2.7,1.6l-.6.7h2.6c0-.7,0-1.5,0-2.4h-6.9Z"/>
    <path d="M225.8,69.4c0,.6-.1.9-.5,1.1-.4.2-.9.2-1.9.2,0-.3-.2-.8-.3-1,.6,0,1.2,0,1.4,0,.2,0,.3,0,.3-.3v-4.1c-.6.4-1.2.8-1.8,1.1l-.4-.9c-.1,1.8-.4,3.8-1.1,5.3-.2-.2-.6-.4-.9-.5,1-2.1,1.1-5.1,1.1-7.3v-5.4h4.2v11.7ZM222.6,63c0,.7,0,1.5,0,2.3.6-.2,1.4-.6,2.2-1v-1.7l-.6.5c-.3-.5-1-1.2-1.6-1.8v1.7ZM222.6,58.7v2.3l.5-.4c.6.5,1.2,1.2,1.6,1.7v-3.6h-2.1ZM233.8,64c-.6,1.8-1.5,3.3-2.7,4.4.9.7,2,1.2,3.3,1.5-.3.2-.6.7-.7,1-1.3-.4-2.5-1-3.4-1.8-1.1.8-2.3,1.3-3.6,1.8-.1-.3-.4-.7-.6-1,1.2-.3,2.3-.8,3.4-1.5-1-1-1.7-2.1-2.2-3.5h.2c0,0-.8,0-.8,0v-1h6.5s.7.2.7.2ZM229,59.4c0,1.3-.4,2.9-2.2,4-.1-.2-.5-.6-.7-.8,1.6-.9,1.9-2.1,1.9-3.2v-1.6h4.6v3.5c0,.4,0,.5.2.5h.8c.2,0,.5,0,.6,0,0,.3,0,.7,0,.9-.2,0-.5,0-.7,0h-.9c-1,0-1.2-.4-1.2-1.5v-2.4h-2.5v.6ZM228.1,64.8c.5,1.1,1.2,2.1,2,2.9.9-.8,1.6-1.8,2.1-2.9h-4.2Z"/>
    <path d="M239.5,61.1c-.6,2-1.6,3.5-3.1,4.5-.2-.2-.6-.6-.8-.7,1.9-1.2,2.9-3.3,3.4-6h-2.7v-.9h10c-.2.8-.4,1.8-.6,2.7h3s0,.3,0,.5c-.2,2.3-.4,3.3-.8,3.7-.2.3-.5.3-1,.4-.4,0-1.1,0-1.8,0,0-.3-.2-.7-.3-1,.7,0,1.4,0,1.7,0s.4,0,.5-.1c.2-.2.4-.9.6-2.5h-3.2c.2-.7.5-1.7.7-2.6h-5c0,.5-.2.9-.3,1.3h3.6s.6.2.6.2c-.3,1.1-.7,2.1-1.3,2.8.6.4,1.2.9,1.6,1.3l-.7.7c-.4-.4-.9-.8-1.5-1.3-.7.7-1.6,1.2-2.5,1.5-.1-.2-.4-.6-.6-.8.9-.3,1.7-.7,2.4-1.3-.6-.3-1.2-.7-1.8-.9l.7-.6c.6.2,1.2.5,1.7.9.4-.4.7-1,.9-1.6h-3.2ZM249.3,69.4v1h-13.5v-1h1.7v-3.7h10.2v3.7h1.7ZM238.4,69.4h2v-2.8h-2v2.8ZM241.5,66.7v2.8h2v-2.8h-2ZM244.5,66.7v2.8h2v-2.8h-2Z"/>
    <path d="M252.5,60c-.5.5-1,.9-1.5,1.3,0-.2-.3-.8-.5-1,1.2-.8,2.4-1.9,3.1-3.2l.9.3c0,.1-.2.3-.3.5.8.5,1.7,1,2.1,1.4l-.5.9c-.5-.4-1.4-1-2.1-1.5-.4.5-.8.9-1.2,1.3h2.5v.8h-2.5v-.8ZM254.8,67c.6.9,1.3,2.2,1.6,3l-.9.5c-.1-.3-.3-.8-.6-1.2-3,1.2-3.4,1.4-3.7,1.7,0-.3-.2-.8-.4-1,.3,0,.6-.3.6-.8v-7.3h4.3v5h-3.2v2.5l2-.8c-.2-.4-.4-.8-.6-1.1l.8-.4ZM252.5,62.5v1.2h2.2v-1.2h-2.2ZM254.8,65.8v-1.3h-2.2v1.3h2.2ZM261.1,57.4c-.1.2-.2.4-.3.6,1,1.2,2.3,2.1,3.7,2.8-.3.2-.6.6-.7.9-1.3-.8-2.5-1.7-3.5-2.9-1,1.2-2.2,2.1-3.5,2.8-.2-.3-.4-.6-.7-.8,1.7-.8,3.3-2.2,4.2-3.7l.9.4ZM258.6,66.3c-.5,1.2-1.1,2.5-1.7,3.4-.2-.2-.6-.4-.8-.5.6-.8,1.2-2,1.6-3.1l.9.3ZM260.8,65.2v4.4c0,.6-.1.8-.5,1s-.9.2-1.9.2c0-.3-.2-.7-.3-.9.6,0,1.2,0,1.4,0,.2,0,.2,0,.2-.3v-4.4h-3.3v-1h3.3v-1.8h-2.3v-1h5.7v1h-2.3v1.8h3.3v1h-3.3ZM262.6,65.9c.6,1,1.4,2.4,1.7,3.3l-.9.4c-.3-.8-1-2.3-1.7-3.3l.8-.4Z"/>
    <path d="M268.3,67.8c-.4.9-1,1.8-1.6,2.5-.2-.1-.6-.5-.8-.6.6-.6,1.1-1.4,1.5-2.1l.9.3ZM273.9,63.6h-8v-.9h3.5c-.1-.2-.2-.5-.3-.7l1-.3c.2.3.4.6.5.9h3.3v.9ZM273.3,61.7h-6.7v-4h6.7v4ZM270.5,67.2v2.5c0,.5,0,.8-.5.9-.4.2-.9.2-1.8.2,0-.3-.2-.6-.3-.9.6,0,1.1,0,1.3,0,.2,0,.2,0,.2-.2v-2.5h-2.6v-2.8h6.4v2.8h-2.7ZM272.2,58.4h-4.5v.9h4.5v-.9ZM272.2,60.1h-4.5v.9h4.5v-.9ZM267.8,66.4h4.3v-1.3h-4.3v1.3ZM272,67.5c.5.7,1.1,1.6,1.4,2.2l-.8.4c-.3-.6-.8-1.5-1.4-2.2l.8-.4ZM279.4,66.2c-1.2,1.9-3.1,3.6-5.2,4.6-.2-.3-.5-.6-.8-.9,2-.9,3.9-2.4,4.9-4.1l1,.4ZM278.6,57.9c-1,1.3-2.5,2.7-3.9,3.5-.2-.2-.5-.6-.8-.8,1.3-.7,2.9-2,3.7-3.2l1,.4ZM279,61.9c-1.1,1.5-2.8,2.8-4.4,3.7-.2-.2-.5-.6-.8-.8,1.5-.7,3.2-2.1,4.2-3.3l1,.4Z"/>
    <path d="M285.3,60.2c-.6,1.9-2.2,3.2-4.1,3.9,0-.2-.3-.5-.5-.7,1.2-.4,2.3-1.1,3-2-2.1.2-2.4.3-2.6.4,0-.2-.1-.6-.2-.8.3,0,.5-.2.9-.4.2-.1.5-.4.9-.8-1.1.1-1.4.2-1.5.2,0-.2-.2-.6-.3-.8.2,0,.4-.2.6-.3.2-.2,1-1,1.4-1.8l.7.4c-.5.6-1,1.2-1.5,1.7h1.3c.3-.4.5-.7.8-1l.7.4c-.8.8-1.6,1.6-2.5,2.2l1.8-.2c.1-.2.2-.4.3-.7l.8.2ZM290.8,64.9c-.3.3-.5.7-.8.9h4.1v.8h-13.3v-.8h4.1c-.1-.3-.4-.6-.6-.9l.5-.2h-2.4v-.8h4.7c0-.2-.2-.5-.3-.7l1-.3c.2.3.4.6.5.9h4.6v.8h-2.3.3ZM282.9,67.2h9.2v3.6h-1.1v-.4h-7.1v.4h-1v-3.6ZM284,67.9v.7h7.1v-.7h-7.1ZM291.1,69.8v-.7h-7.1v.7h7.1ZM289.5,63.3c-.1-.2-.3-.5-.5-.8-3.1.7-3.5.8-3.7.9,0-.2-.2-.6-.4-.8.2,0,.5-.3.5-.8v-3.9h.9s.7,0,.7,0c-.1-.3-.3-.6-.4-.8l.9-.2c.2.3.4.7.5,1h1.6v3.5h-.7c.5.5,1,1,1.2,1.4l-.7.4ZM285.3,64.8c.3.3.5.7.6,1h-.2c0,0,3.3,0,3.3,0,.2-.3.5-.7.7-1h-4.4ZM286.4,58.7v.8h2.4v-.8h-2.4ZM286.4,60.8h2.4v-.8h-2.4v.8ZM288.4,61.9c-.2-.1-.3-.3-.5-.5h-1.6v.9l2.1-.4ZM291.2,63.8h-.9v-6.1h3.3s.7.3.7.3c-.4.7-.8,1.4-1.2,2.1.8.6,1.2,1.3,1.2,1.8,0,.5-.2.9-.6,1.1-.2.1-.4.2-.7.2-.3,0-.7,0-1.1,0,0-.2-.1-.6-.3-.8.4,0,.8,0,1.1,0,.2,0,.3,0,.4,0,.2,0,.3-.3.3-.5,0-.4-.4-.9-1.3-1.5.3-.6.7-1.2.9-1.7h-1.7v5.3Z"/>
    <path d="M297.2,66.1c1.2-.5,1.8-1.2,1.9-2.2,0,0-.2,0-.3,0-.6,0-1.1-.4-1.1-1.1s.5-1.1,1.1-1.1,1.3.7,1.3,1.7c0,1.6-1,2.8-2.6,3.4l-.3-.8Z"/>
    <path d="M303.6,61.7c0-2.2,1-3.5,2.5-3.5s2.5,1.3,2.5,3.5-1,3.5-2.5,3.5-2.5-1.3-2.5-3.5ZM307.6,61.7c0-1.8-.6-2.6-1.5-2.6s-1.5.8-1.5,2.6.6,2.6,1.5,2.6,1.5-.9,1.5-2.6ZM312.6,58.3h.9l-6.1,11.4h-.9l6.1-11.4ZM311.3,66.2c0-2.2,1-3.5,2.5-3.5s2.5,1.3,2.5,3.5-1,3.5-2.5,3.5-2.5-1.3-2.5-3.5ZM315.3,66.2c0-1.8-.6-2.6-1.5-2.6s-1.5.9-1.5,2.6.6,2.6,1.5,2.6,1.5-.9,1.5-2.6Z"/>
  </g>
  <rect class="st5" x="0" y="0" width="526.3" height="42.1" rx="21" ry="21"/>
  <g>
    <path class="st3" d="M68,21c-.5.9-1,1.7-1.6,2.5h12.3v9.7h-3.1v-1.1h-9.6v1.1h-3v-5.9c-1.1.9-2.2,1.8-3.5,2.5-.4-.6-1.5-1.8-2.1-2.4,3-1.5,5.4-3.6,7.2-6.4h-6.5v-2.7h8c.4-.8.7-1.7,1-2.6l3,.8c-.2.6-.4,1.3-.7,1.9h11.1v2.7h-12.5ZM62.2,14.5h-4.1v-2.6h4.1v-1.9h3v1.9h3.6v2.6h-3.6v2.3h-3v-2.3ZM75.6,26.2h-9.6v3.3h9.6v-3.3ZM73.3,14.5h-3.6v-2.6h3.6v-1.9h3v1.9h4.1v2.6h-4.1v2.3h-3v-2.3Z"/>
    <path class="st3" d="M96.7,27.1c3,1,6.9,2.6,9,3.7l-1.4,2.5c-2.2-1.2-6.8-3.2-10-4.3l1.1-1.9h-.9c-1.2,3.1-3.9,5-10.5,6.1-.2-.8-.9-2-1.5-2.7,5-.7,7.4-1.8,8.5-3.5h-7.4v-2.5h8.4c0-.4.2-.8.2-1.3h-9.2v-2.6h9.6v-1.3h-7.4v-2.5h7.4v-1.3h-8.8v-2.6h4.7c-.4-.8-.9-1.5-1.4-2.2l2.6-1c.8.9,1.5,2.1,1.9,2.9l-.7.3h5.5c.6-1,1.4-2.3,1.8-3.2l3.2.8c-.5.9-1.1,1.7-1.7,2.4h4.8v2.6h-8.8v1.3h7.6v2.5h-7.6v1.3h9.9v2.6h-10.3c0,.5-.1.9-.2,1.3h9.7v2.5h-8.2Z"/>
    <path class="st3" d="M129.9,11v22.3h-3v-1h-15.5v1h-2.8V11h21.3ZM126.9,29.7v-16h-3c.8.4,1.6,1,2,1.4l-1,1h1.2v2.1h-4.5c.1,1.4.3,2.7.5,3.8.5-1,.9-2,1.2-3.1l2.3.5c-.6,2.2-1.5,4.1-2.6,5.7.3.8.7,1.2,1.1,1.3.3,0,.5-.9.6-2.3.5.5,1.3,1.1,1.8,1.4-.4,3.1-1.7,4-3.3,3.3-.7-.2-1.4-.8-1.9-1.6-.8.8-1.6,1.5-2.6,2.1-.3-.5-1.1-1.4-1.6-1.8.3-.2.5-.3.8-.5-2,.3-4,.6-5.6.8l-.3-2.2c1.8-.2,4.4-.5,7-.9v1.3c.5-.4.9-.8,1.3-1.3-.5-1.8-.8-4.1-1.1-6.5h-6.9v-2.1h6.8c0-.7,0-1.4-.1-2.1h2.4c0,.7,0,1.4.1,2.1h2.7c-.5-.5-1.3-1-1.9-1.3l1.1-1.1h-12v16h15.5ZM118.5,24.1h-5.6v-4.7h5.6v4.7ZM116.5,20.9h-1.7v1.6h1.7v-1.6Z"/>
    <path class="st3" d="M146.5,11.1c-.2.2-.3.5-.5.7,3.3,3.4,6.7,5.1,10.3,6.4-.7.6-1.5,1.7-1.9,2.6-3.4-1.5-6.7-3.3-10.1-6.9-2.8,2.9-6.3,5.3-9.9,6.9-.4-.8-1.3-1.8-2-2.5,4.5-1.8,9-4.7,11.5-8.5l2.7,1.3ZM146,30h8.9v2.7h-21.2v-2.7h2.7v-8.7h2.9v8.7h3.5v-12.8h3.1v5.1h6.7v2.7h-6.7v5Z"/>
    <path class="st3" d="M167.1,29.4c-1.7,1.4-4.7,2.7-7.3,3.3-.4-.6-1.1-1.6-1.8-2.1,2.5-.3,5.4-1.2,6.9-2.1l2.1,1ZM180.4,25.2v2.4h-9.7v5.7h-2.9v-5.7h-9.5v-2.4h9.5v-1.1h-7.2v-2.2h7.2v-1.1h-8.4v-2.2h4.6c-.2-.6-.6-1.3-.9-1.8l1.7-.4h-6.4v-2.3h3.4c-.4-1-1-2.1-1.6-3.1l2.5-.8c.8,1,1.6,2.5,1.9,3.5l-1.2.5h2.3v-4.1h2.7v4.1h1.9v-4.1h2.8v4.1h2.2l-.9-.3c.6-1,1.2-2.5,1.6-3.6l3.1.7c-.7,1.1-1.4,2.3-2,3.1h3.2v2.3h-6.6l2.3.6c-.5.6-1.1,1.2-1.5,1.6h4.8v2.2h-8.7v1.1h7.5v2.2h-7.5v1.1h9.7ZM166,16.4c.4.6.8,1.3,1,1.9l-1.3.3h6.8l-.9-.3c.4-.6.9-1.3,1.3-1.9h-6.8ZM173.8,28.3c2,.8,5,2,6.6,2.8l-2.1,1.6c-1.4-.8-4.4-2.1-6.5-3l2-1.4Z"/>
    <path class="st3" d="M202.7,30.4c.4,0,.5-.3.6-2.7.5.5,1.7,1,2.5,1.1-.3,3.3-1,4.3-2.8,4.3h-1.7c-2.3,0-2.7-.9-2.7-3.5v-5h-1.2c-.4,4-1.3,7.1-5.5,8.9-.3-.7-1.1-1.8-1.7-2.3,3.4-1.3,4.1-3.6,4.3-6.6h-1.6v-6.7c-.2.2-.4.3-.6.5-.2-.3-.6-.7-1-1.2v2.6h-2.6v.4c.6.6,2.5,2.8,2.9,3.4l-1.7,2.4c-.2-.6-.8-1.6-1.2-2.5v9.9h-2.7v-9.2c-.7,2-1.5,4-2.4,5.3-.3-.9-.9-2.1-1.4-2.9,1.2-1.7,2.3-4.3,3-6.7h-2.7v-2.8h3.4v-3c-.8.1-1.6.3-2.4.4-.1-.6-.5-1.6-.8-2.3,2.5-.4,5.4-1.2,7.2-2l1.7,2.4c-.9.4-1.9.7-3,.9v3.6h2.4c-.3-.3-.6-.6-.9-.8,1.9-1.4,3.8-3.6,4.8-5.8l2.8.9c-.9,1.9-2.3,3.8-3.7,5.4h8.8c-1.1-1.7-2.7-3.7-4.2-5.2l2.1-1.4c1.9,2,4.2,4.7,5.3,6.5l-2.2,1.6c0-.2-.2-.4-.4-.7v7.1h-2v5c0,.7,0,.8.4.8h.8ZM195.7,22h4.8v-2.8h-4.8v2.8Z"/>
    <path class="st3" d="M220.3,14.8v3.9l.5-.6c2.7,1.3,6.6,3.5,8.5,5l-2.2,2.7c-1.5-1.3-4.3-3.1-6.8-4.5v11.9h-3.2V14.8h-9v-3h22.3v3h-10Z"/>
    <path class="st3" d="M241.5,16.4h-8.9v-2.3h4c-.4-.9-1-2.2-1.5-3.1l2.2-.9c.6,1,1.4,2.5,1.8,3.3l-1.5.7h3.9v2.3ZM255.1,30.2c0,1.2-.2,2-1,2.4-.7.4-1.8.5-3.4.5-.1-.7-.4-1.8-.8-2.5,1,0,2,0,2.3,0,.3,0,.4,0,.4-.5v-8.5h-7.8c0,3.8-.5,8.7-2.3,11.8-.4-.4-1.5-1.2-2-1.4h-4.6v1h-2.3v-8.5h7.2v7c1.5-3.1,1.6-7.4,1.6-10.7v-9.8h12.6v19.3ZM233.6,20.9h7.1v2.2h-7.1v-2.2ZM240.7,19.8h-7.1v-2.2h7.1v2.2ZM238.4,26.8h-2.5v2.8h2.5v-2.8ZM244.8,13.5v1.8h2.7v-1.8h-2.7ZM244.8,19.3h2.7v-1.7h-2.7v1.7ZM247.5,28.9v1.1h-2v-7.3h6.3v6.2h-4.3ZM247.5,24.8v2.1h2.1v-2.1h-2.1ZM252.6,13.5h-2.7v1.8h2.7v-1.8ZM252.6,19.3v-1.7h-2.7v1.7h2.7Z"/>
    <path class="st3" d="M260.1,25.1c1.9-.6,3.1-1.7,3.2-3,0,0-.2,0-.3,0-1.2,0-2.4-.8-2.4-2.2s1.1-2.2,2.5-2.2,2.7,1.3,2.7,3.4-1.8,5.1-4.9,6l-.8-2Z"/>
    <path class="st3" d="M279.4,15.8c-.3.7-.6,1.3-1,2h11.6v12.3c0,1.5-.3,2.3-1.3,2.7-1,.5-2.4.5-4.4.5-.1-.8-.5-2.1-.9-2.9,1.3,0,2.7,0,3.1,0,.4,0,.6-.1.6-.5v-1.5h-9.4c-.4,1.9-1.2,3.7-2.8,5-.4-.6-1.5-1.9-2.1-2.3,2.1-1.9,2.3-4.5,2.3-6.9v-2c-.9,1-1.9,1.9-3.1,2.7-.5-.7-1.4-1.7-1.9-2.3,2.5-1.7,4.5-4.2,6-7h-5.4v-2.8h6.7c.4-1,.7-2,1-3l3.1.7c-.2.8-.5,1.5-.8,2.3h12.2v2.8h-13.4ZM287.2,26v-1.6h-9c0,.5,0,1,0,1.6h9ZM287.2,20.4h-9v1.6h9v-1.6Z"/>
    <path class="st3" d="M303,21.4c1.2.9,3.7,3,4.4,3.6l-1.7,2.5c-.6-.8-1.7-1.9-2.6-2.9v8.6h-2.9v-8.9c-1.1,2.3-2.4,4.4-3.8,5.9-.3-.9-1-2.1-1.5-2.9,1.8-1.8,3.6-4.6,4.7-7.2h-4.2v-2.7h4.7v-3.1c-1.4.3-2.8.5-4.2.7-.1-.6-.5-1.7-.8-2.3,3.6-.5,7.6-1.5,10-2.6l2.1,2.3c-1.2.5-2.7.9-4.2,1.3v3.7h4.3v2.7h-4.3v1.3ZM311.4,27h-2.9v-14h2.9v14ZM317.4,10.4v19.2c0,1.7-.3,2.5-1.4,3-1,.5-2.7.6-5,.6-.1-.8-.6-2.2-1-3.1,1.6,0,3.2,0,3.7,0,.5,0,.7-.2.7-.6V10.4h2.9Z"/>
    <path class="st3" d="M334,11.1c-.2.2-.3.5-.5.7,3.3,3.4,6.7,5.1,10.3,6.4-.7.6-1.5,1.7-1.9,2.6-3.4-1.5-6.7-3.3-10.1-6.9-2.8,2.9-6.3,5.3-9.9,6.9-.4-.8-1.3-1.8-2-2.5,4.5-1.8,9-4.7,11.5-8.5l2.7,1.3ZM333.5,30h8.9v2.7h-21.2v-2.7h2.7v-8.7h2.9v8.7h3.5v-12.8h3.1v5.1h6.7v2.7h-6.7v5Z"/>
    <path class="st3" d="M354.6,29.4c-1.7,1.4-4.7,2.7-7.3,3.3-.4-.6-1.1-1.6-1.8-2.1,2.5-.3,5.4-1.2,6.9-2.1l2.1,1ZM367.9,25.2v2.4h-9.7v5.7h-2.9v-5.7h-9.5v-2.4h9.5v-1.1h-7.2v-2.2h7.2v-1.1h-8.4v-2.2h4.6c-.2-.6-.6-1.3-.9-1.8l1.7-.4h-6.4v-2.3h3.4c-.4-1-1-2.1-1.6-3.1l2.5-.8c.8,1,1.6,2.5,1.9,3.5l-1.2.5h2.3v-4.1h2.7v4.1h1.9v-4.1h2.8v4.1h2.2l-.9-.3c.6-1,1.2-2.5,1.6-3.6l3.1.7c-.7,1.1-1.4,2.3-2,3.1h3.2v2.3h-6.6l2.3.6c-.5.6-1.1,1.2-1.5,1.6h4.8v2.2h-8.7v1.1h7.5v2.2h-7.5v1.1h9.7ZM353.5,16.4c.4.6.8,1.3,1,1.9l-1.3.3h6.8l-.9-.3c.4-.6.9-1.3,1.3-1.9h-6.8ZM361.3,28.3c2,.8,5,2,6.6,2.8l-2.1,1.6c-1.4-.8-4.4-2.1-6.5-3l2-1.4Z"/>
    <path class="st3" d="M379.3,19.7c-.2.2-.5.5-.7.6-.2-.3-.7-.8-1.2-1.3.2,1.4.3,2.9.3,4.4,0,3.4-.3,6.7-1.3,8.2-.4.5-.9.8-1.5,1-1,.2-2,.3-3.2.2,0-1-.3-2-.7-2.8,1.2.1,2.1.1,2.7,0,.3,0,.5-.2.8-.4.5-.7.7-3,.7-5.9-1.1,1.4-2.3,2.8-3.5,3.7-.4-.7-1-1.8-1.6-2.5,1.8-1.1,3.7-3.3,4.8-5.4-.1-.9-.3-1.7-.6-2.4-.9,1-1.9,1.9-2.8,2.6-.3-.8-1-2-1.6-2.6,1-.6,2-1.5,3-2.5-.6-.9-1.4-1.7-2.3-2.6l1.9-1.6c.8.7,1.5,1.4,2.1,2.2.6-.7,1.1-1.4,1.5-2.1l2.1,1.4c-.6,1-1.3,2-2.1,3,.5,1,.9,2,1.1,3.1,1.1-1,2.3-2.3,3.1-3.6l1.5.5v-1.2h-3.6v-2.1h3.6v-1.6h2.6v5l1.6-.8c.2.2.5.5.7.7v-4.9h2.7v1.5h3.9v2.1h-3.9v1.4h-2.6c.4.5.8,1,1.1,1.4h4.4v1.7h-4.8v.8h4.2v1.5h-4.2v.9h4.2v1.5h-4.2v.8h5.1v1.8h-10.8v.5h-2.5v-6ZM392.7,27.1c-1,1.3-2.4,2.4-4.1,3.3,1.6.3,3.4.5,5.1.7-.6.5-1.3,1.6-1.7,2.3-2.5-.3-4.9-.8-7-1.5-2.1.7-4.5,1.1-6.9,1.5-.2-.7-.8-1.8-1.2-2.3,1.7-.1,3.3-.3,4.8-.6-.9-.5-1.8-1.1-2.5-1.8l1-.4h-1.6v-2.1h12.4c0,0,1.7,1,1.7,1ZM384.9,18.1h-3v.8h3v-.8ZM384.9,20.3h-3v.9h3v-.9ZM384.9,22.7h-3v.8h3v-.8ZM382,15l.8.3c-.2.4-.5.7-.8,1.1h2.8c-.3-.4-.7-.8-1-1.1l.5-.2h-2.4ZM382.3,28.2c.8.5,1.7.9,2.8,1.3,1-.4,2-.8,2.8-1.3h-5.6Z"/>
    <path class="st3" d="M403,21.4c1.2.9,3.7,3,4.4,3.6l-1.7,2.5c-.6-.8-1.6-1.9-2.6-2.9v8.6h-2.9v-8.9c-1.1,2.3-2.4,4.4-3.8,5.9-.3-.9-1-2.1-1.5-2.9,1.8-1.8,3.6-4.6,4.7-7.2h-4.2v-2.7h4.7v-3.1c-1.4.3-2.8.5-4.2.7-.1-.6-.5-1.7-.8-2.3,3.6-.5,7.6-1.5,10-2.6l2.1,2.3c-1.2.5-2.7.9-4.2,1.3v3.7h4.3v2.7h-4.3v1.3ZM411.4,27h-2.9v-14h2.9v14ZM417.4,10.4v19.2c0,1.7-.4,2.5-1.4,3-1,.5-2.7.6-5,.6-.1-.8-.6-2.2-1-3.1,1.6,0,3.2,0,3.7,0,.5,0,.7-.2.7-.6V10.4h2.9Z"/>
    <path class="st3" d="M441.8,18.7c-1,3.2-2.5,6.1-4.3,8.6.7,1.8,1.5,2.8,2.3,2.8s.9-1.2,1-4.4c.7.7,1.7,1.3,2.5,1.7-.5,4.6-1.5,5.7-3.8,5.7s-3.1-1.2-4.2-3.3c-1.3,1.3-2.7,2.4-4.2,3.4-.4-.6-1.5-1.9-2.1-2.4,1.9-1,3.6-2.4,5.1-4-.8-2.8-1.4-6.3-1.7-10.1h-7.2v2.7h6.2s0,.8,0,1.1c0,5.2-.2,7.5-.8,8.2-.5.6-1,.9-1.7,1-.6.1-1.7.1-2.9,0,0-.9-.4-2-.8-2.8.9,0,1.8.1,2.1.1s.5,0,.8-.3c.2-.3.4-1.5.4-4.7h-3.2c0,3.6-.6,8.5-2.7,11.6-.5-.6-1.8-1.7-2.5-2,1.9-3,2.1-7.3,2.1-10.6v-7.3h10.2c0-1.2,0-2.5,0-3.7h3.1c0,1.2,0,2.5,0,3.7h3.8c-.9-.8-2.2-1.5-3.2-2.2l1.8-1.8c1.4.7,3.2,1.8,4.1,2.7l-1.2,1.3h2.6v2.9h-7.7c.2,2.5.6,4.8,1,6.8,1-1.7,1.8-3.5,2.4-5.5l3,.7Z"/>
    <path class="st3" d="M467.3,25.8c-1.4,1-2.9,2-4.4,2.7,1.6.9,3.4,1.6,5.7,2-.7.6-1.5,1.8-1.9,2.6-5.6-1.3-8.9-4.2-11-8.8h-3.6v5.3l5.5-1.1c-.2.8-.2,2-.2,2.6-6,1.3-7.3,1.6-8,1.9h-.1c-.2-.6-.8-2.1-1.2-2.8.5-.3,1.3-.9,1.3-1.9v-4h-3.6v-2.6h4.1v-11h15.8v2.4h-12.7v1.4h12v2.3h-12v1.3h12v2.3h-12v1.3h15.3v2.6h-2.7l1.9,1.3ZM458.8,24.5c.5,1,1.2,1.8,2,2.5,1.3-.8,2.7-1.7,3.7-2.5h-5.7Z"/>
  </g>
  <g>
    <path d="M510.8,455.1c-.2-.5-.7-1.4-1.1-2.1v7.7h-1v-7.6c-.5,1.7-1.2,3.4-1.9,4.5-.1-.3-.4-.8-.6-1.1.9-1.2,1.9-3.6,2.3-5.6h-1.9v-1h2.1v-2.9h1v2.9h1.7v1h-1.7v.8c.4.5,1.5,2.3,1.8,2.7l-.7.8ZM513.9,457.5c-.6,1-1.4,2.1-2.2,2.7-.2-.2-.6-.5-.9-.6.8-.6,1.6-1.5,2.1-2.4l1,.3ZM514,448.6h-2.6v-.9h8.4v.9h-2.7v1h2.5v3.5h-7.8v-3.5h2.3v-1ZM516,456.7v3.9h-1v-3.9h-3.6v-.9h8.4v.9h-3.8ZM512.4,454.8v-.9h6.4v.9h-6.4ZM512.7,452.2h1.3v-1.8h-1.3v1.8ZM516.2,448.6h-1.3v1h1.3v-1ZM514.8,452.2h1.3v-1.8h-1.3v1.8ZM517,450.4v1.8h1.5v-1.8h-1.5ZM517.9,457.2c.8.8,1.6,1.8,2,2.5l-.9.5c-.4-.7-1.2-1.8-2-2.5l.8-.5Z"/>
    <path d="M519.9,467.6v.9h-13.4v-.9h4.6v-2.9h-3.8v-.9h2.8c-.2-.4-.6-1-.9-1.5l.9-.4c.5.5.9,1.1,1.1,1.6l-.6.3h4.3c.4-.5.8-1.3,1.1-1.8l1.1.4c-.3.5-.6,1.1-.9,1.5h3v.9h-4v2.9h4.7ZM508.9,464.9c.5.7,1,1.5,1.2,2.2l-1,.4c-.1-.6-.6-1.5-1.1-2.2l.9-.3ZM508.6,469.5h9.3v6.1h-1.1v-.4h-7.1v.5h-1.1v-6.2ZM509.7,470.4v1.5h7.1v-1.5h-7.1ZM516.8,474.2v-1.5h-7.1v1.5h7.1ZM512.2,467.6h1.9v-2.9h-1.9v2.9ZM516.1,467.2c.4-.6,1-1.6,1.2-2.3l1,.3c-.4.8-.9,1.7-1.4,2.3l-.9-.3Z"/>
    <path d="M519.9,505.6h-6.2v5.2h-1.1v-5.2h-6.1v-1.1h6.1v-5.2h-5.3v-1.1h11.7v1.1h-5.3v5.2h6.2v1.1ZM509.3,500c.6,1.1,1.2,2.5,1.4,3.4l-1,.4c-.2-.9-.8-2.3-1.3-3.4l1-.3ZM515.4,503.4c.6-.9,1.2-2.5,1.6-3.5l1.2.3c-.5,1.2-1.3,2.6-1.8,3.5l-.9-.3Z"/>
    <path d="M519.8,514.6s0,.4,0,.6c-.2,6.9-.4,9.3-1,10-.3.4-.7.6-1.2.6-.5,0-1.4,0-2.3,0,0-.3-.2-.8-.4-1.1,1,.1,1.9.1,2.3.1s.5,0,.6-.2c.5-.5.7-2.8.9-8.9h-5.3c-.6,1-1.2,2-1.8,2.7-.2-.2-.7-.5-1-.6.2-.2.5-.5.7-.8h-1.7v4.6c.6-.3,1.2-.6,1.8-.9l.3,1c-1.7.9-3.6,1.8-5,2.4l-.4-1.1c.6-.2,1.4-.6,2.2-1v-5.1h-1.9v-1.1h1.9v-3.4h1.1v3.4h1.7v1c1-1.3,1.8-3,2.3-4.7l1.1.3c-.2.8-.5,1.5-.8,2.2h6ZM512.1,521.2h5.1v1h-5.1v-1ZM517,517.8v1h-4.5v-1h4.5Z"/>
  </g>
  <g>
    <path d="M470.4,447.8c-1.1,2.5-2.7,4.8-4.4,6.4-.2-.2-.7-.7-1-.9,1.7-1.4,3.2-3.6,4.2-5.8l1.2.4ZM474.6,454.9c1.2,1.6,2.6,3.7,3.4,5l-1.1.6c-.2-.4-.5-.9-.8-1.4-7.8.5-8.6.6-9.2.8,0-.2-.3-.8-.4-1.2.4,0,.8-.6,1.4-1.3.6-.7,2.5-3.4,3.8-5.9l1.2.5c-1.3,2.3-2.8,4.7-4.4,6.4l6.9-.4c-.6-.9-1.3-1.9-1.9-2.7l1.1-.5ZM474.9,447.4c.7,2.4,2.2,4.6,4,5.8-.3.2-.7.7-.9,1-1.7-1.3-3.1-3.4-3.9-5.7h-2.8v-1.1h3.6Z"/>
    <path d="M477.6,474.2c0,.7-.2,1.1-.7,1.2-.5.2-1.4.2-2.8.2,0-.3-.2-.8-.4-1.1,1.1,0,2.1,0,2.3,0,.3,0,.4-.1.4-.4v-3h-4v4.4h-1.1v-4.4h-3.8c-.2,1.7-.7,3.4-1.9,4.7-.2-.2-.6-.6-.9-.7,1.6-1.9,1.8-4.5,1.8-6.6v-5.4h10.9v11.1ZM471.4,470v-2.5h-3.6v.9c0,.5,0,1.1,0,1.6h3.6ZM467.8,464.1v2.4h3.6v-2.4h-3.6ZM476.5,464.1h-4v2.4h4v-2.4ZM476.5,470v-2.5h-4v2.5h4Z"/>
    <path d="M478.6,486.4h-1.5v2.7h-1.1v-.7h-3.6v1c0,.7-.2.9-.7,1.1-.5.2-1.2.2-2.5.2,0-.3-.2-.7-.4-.9.9,0,1.8,0,2.1,0,.3,0,.4-.1.4-.4v-1h-4.8v-.9h4.8v-1.1h-6.1v-.9h6.1v-1h-4.7v-.8h4.7v-1h-4.3v-2.6h4.3v-.9h-5.8v-.9h5.8v-1.2h1.1v1.2h6v.9h-6v.9h4.5v2.6h-4.5v1h4.7v1.9h1.5v.9ZM471.3,481.8v-1.1h-3.2v1.1h3.2ZM472.4,480.7v1.1h3.4v-1.1h-3.4ZM472.4,485.5h3.6v-1h-3.6v1ZM476,486.4h-3.6v1.1h3.6v-1.1Z"/>
    <path d="M470.6,503.3c-1.1.8-3,1.6-4.6,1.9-.1-.3-.5-.6-.7-.8,1.5-.3,3.5-.8,4.4-1.5l.8.4ZM478.4,501.2v.9h-6v3.6h-1.1v-3.6h-5.9v-.9h5.9v-1.1h-4.5v-.9h4.5v-1.1h-5.3v-.9h3.2c-.2-.4-.5-1-.8-1.4l.8-.2h-3.9v-.9h2.4c-.2-.6-.7-1.5-1.2-2.2l.9-.3c.5.7,1.1,1.6,1.3,2.2l-.8.3h1.8v-2.7h1v2.7h1.8v-2.7h1.1v2.7h1.8l-.6-.2c.4-.6.9-1.6,1.2-2.3l1.1.3c-.4.8-.9,1.6-1.3,2.2h2.3v.9h-3.9l1,.3c-.3.5-.7,1-1,1.4h3.4v.9h-5.4v1.1h4.7v.9h-4.7v1.1h6ZM469.6,495.6c.3.5.7,1.1.8,1.5l-.6.2h4.1l-.5-.2c.3-.4.7-1.1.9-1.5h-4.7ZM474,502.8c1.4.5,3.3,1.2,4.3,1.7l-.7.7c-1-.5-2.9-1.2-4.3-1.8l.7-.6Z"/>
  </g>
  <g>
    <path d="M432,449.1c-.3.6-.7,1.1-1.1,1.7v9.8h-1.2v-8.3c-1.5,1.7-3.3,3.3-5.4,4.4-.2-.3-.5-.7-.8-1,3-1.5,5.5-4,7-6.5h-6.6v-1.1h12.8v1.1h-4.8ZM432,451.6c1.7,1.1,4,2.8,5.1,3.9l-.9.9c-1.1-1.1-3.3-2.9-5.1-4.1l.8-.7Z"/>
    <path d="M436.8,465.4s0,.4,0,.6c-.2,6.3-.3,8.4-.8,9-.3.4-.6.5-1,.6-.4,0-1.1,0-1.8,0,0-.3-.1-.8-.3-1,.7,0,1.4,0,1.7,0s.4,0,.5-.2c.3-.4.5-2.4.7-7.9h-2.1c-.2,4-.9,7.3-3.5,9.2-.2-.2-.6-.6-.8-.8.2-.2.4-.3.6-.5-2.3.3-4.6.5-6.3.7l-.2-1c.9,0,2-.2,3.3-.3v-1.3h-2.8v-.9h2.8v-.9h-2.8v-4.5h2.8v-.9h-3.2v-.9h3.2v-1c-1,0-1.9.1-2.8.2,0-.2-.1-.6-.3-.8,2.2-.1,4.9-.4,6.5-.7l.6.9c-.8.2-1.8.3-2.9.4v1.1h3.2v.9h-3.2v.9h2.9v4.5h-2.9v.9h2.9v.9h-2.9v1.2c1,0,2-.2,3-.3h0c1.3-1.7,1.7-4.1,1.8-6.9h-1.8v-1h1.8c0-1.1,0-2.1,0-3.3h1c0,1.1,0,2.2,0,3.3h3.2ZM424.9,468.2h1.9v-1.1h-1.9v1.1ZM426.7,470v-1.1h-1.9v1.1h1.9ZM427.8,467.1v1.1h2v-1.1h-2ZM429.7,468.9h-2v1.1h2v-1.1Z"/>
    <path d="M425.8,483v2.2c0,1.7-.3,4-1.6,5.5-.2-.2-.6-.6-.8-.7,1.2-1.4,1.4-3.3,1.4-4.8v-3.2h1.9c-.1-.2-.4-.4-.5-.6,1.2-.2,2.5-.5,3.8-.9-1.1-.3-2.3-.6-3.4-.9l.7-.5h-2.4v-.9h5.5c-.3-.4-.5-.8-.8-1.1l.8-.4c.4.5.9,1.1,1.1,1.5h5v.9h-2.3l.6.4c-.7.4-1.4.7-2.3,1,1.1.3,2.1.7,2.9.9l-.6.6h2.2v.9h-11.1ZM437.2,489.2v.9h-11.1v-.9h4.9v-1.5h-3.5v-.9h3.5v-1.3h-3.1c-.4.7-.9,1.4-1.4,1.8-.1-.2-.4-.7-.6-.9.8-.8,1.5-1.9,2-3.1l1,.3c-.1.3-.3.7-.4,1h2.6v-1.3h1.1v1.3h4v.9h-4v1.3h3.7v.9h-3.7v1.5h5.1ZM434.4,482.1c-.9-.3-2-.7-3.2-1.1-1.3.4-2.8.8-4,1.1h7.2ZM427.5,479.3c1.2.3,2.5.6,3.8,1,1-.3,1.8-.6,2.5-1h-6.3Z"/>
  </g>
  <g>
    <path d="M388.2,459.5c0,.6-.1.8-.5,1-.4.2-1,.2-2,.2,0-.3-.2-.7-.4-.9.7,0,1.3,0,1.5,0s.3,0,.3-.3v-2.3c-1,.6-2,1.2-2.8,1.7l-.4-.9c-.1,1-.4,2-1.1,2.8-.2-.2-.5-.6-.8-.8.9-1.1.9-2.7.9-4v-3.7h5.2v7.2ZM387.2,448.1c.7,1,1.6,2.4,2,3.3l-1,.4c-.1-.3-.3-.6-.5-1-4.1.3-4.6.4-4.9.6,0-.2-.2-.8-.4-1.1.2,0,.5-.3.8-.6.3-.3,1.3-1.5,1.9-2.7l1.1.4c-.6,1-1.4,2-2.1,2.8l3.1-.2c-.3-.5-.6-1-.9-1.5l.9-.3ZM384,455.9c0,.6,0,1.2-.1,1.9.8-.4,2-1,3.2-1.6v-3h-3.1v2.7ZM384.7,454.1c.8.5,1.8,1.1,2.4,1.6l-.6.6c-.5-.4-1.6-1.1-2.4-1.6l.6-.6ZM391.2,453.4c-1.3,0-1.7-.5-1.7-1.7v-4.7h1.1v2.1h4v1h-4v1.7c0,.5.1.7.6.7h2.8c.4,0,1,0,1.2,0,0,.3,0,.7.1,1-.3,0-.8,0-1.3,0h-2.8ZM393.9,459.5c.6,0,.7-.3.8-1.9.3.2.7.3,1,.4-.1,1.9-.5,2.5-1.7,2.5h-2.7c-1.5,0-1.8-.3-1.8-1.6v-5h1.1v1.8h4.2v1h-4.2v2.2c0,.5.1.6.8.6h2.5Z"/>
    <path d="M384.4,468.5c-.6-.4-1.7-1.1-2.5-1.6l.6-.8c.8.4,2,1.1,2.5,1.5l-.7.9ZM385.3,470.6c-.6,1.6-1.5,3.4-2.2,4.8l-1-.6c.7-1.2,1.6-3.1,2.3-4.8l.9.6ZM385.1,464.6c-.6-.5-1.7-1.2-2.5-1.7l.6-.8c.8.5,1.9,1.2,2.5,1.6l-.7.9ZM387.4,466.8c0,2.6-.3,6.3-2,8.8-.2-.2-.7-.5-.9-.6,1.7-2.4,1.8-5.8,1.8-8.2v-4.1h9.1v1h-8v3.1ZM389.8,471.7c-.5,1.1-1.2,2.3-1.9,3.1-.2-.2-.6-.4-.9-.6.7-.7,1.3-1.8,1.8-2.8l1,.3ZM392,470.6v3.9c0,.6,0,.8-.5,1-.4.2-1,.2-2,.2,0-.3-.2-.7-.3-1,.7,0,1.4,0,1.5,0,.2,0,.3,0,.3-.2v-3.9h-2.7v-5.1h2.3c.2-.5.3-1.1.4-1.5l1.2.3c-.2.4-.4.9-.6,1.3h3.3v5.1h-2.8ZM389.3,467.6h4.6v-1.3h-4.6v1.3ZM389.3,469.7h4.6v-1.3h-4.6v1.3ZM394,471.3c.6.9,1.3,2.1,1.7,2.9l-1,.4c-.3-.8-1.1-2-1.6-2.9l1-.4Z"/>
  </g>
  <g>
    <path d="M353.8,448.8h-11v3.2c0,2.4-.2,5.9-1.6,8.3-.2-.2-.7-.4-1-.6,1.3-2.3,1.4-5.5,1.4-7.8v-4.2h12.1v1ZM346.3,456.9c-.8,1.1-1.8,2.3-2.6,3.1-.2-.2-.7-.5-.9-.6.9-.8,1.9-1.9,2.5-2.9l1,.4ZM348.9,455.8v3.7c0,.6-.1.9-.6,1-.4.2-1.2.2-2.3.2,0-.3-.2-.7-.3-1,.9,0,1.6,0,1.9,0,.2,0,.3,0,.3-.3v-3.6h-3.7v-5.4h2.9c.2-.4.4-1,.6-1.4l1.3.2c-.2.4-.5.8-.7,1.2h4.3v5.4h-3.7ZM345.3,452.7h6.2v-1.4h-6.2v1.4ZM345.3,454.9h6.2v-1.4h-6.2v1.4ZM351,456.5c.9.9,2.1,2.2,2.7,3l-.9.6c-.6-.8-1.7-2.1-2.6-3.1l.9-.5Z"/>
    <path d="M344.1,470.2v5.5h-1v-5.1c-.9.3-1.7.5-2.5.8l-.3-1.1c.8-.2,1.7-.5,2.8-.8v-3.3h-1.4c-.2.8-.4,1.6-.7,2.2-.2-.1-.6-.4-.9-.5.6-1.3.9-3.2,1-5l1,.2c0,.7-.2,1.4-.3,2h1.2v-3h1v3h1.5v1.1h-1.5v3.1l1.7-.5v1c.1,0-1.7.6-1.7.6ZM353.9,464.5s0,.4,0,.6c-.3,6.8-.7,9.1-1.3,9.9-.3.4-.6.5-1,.6-.4,0-1,0-1.7,0,0-.3-.1-.8-.3-1.1.7,0,1.3,0,1.6,0s.4,0,.6-.3c.5-.5.8-2.7,1.1-8.7h-.7c-.8,3.9-2.4,7.9-4.9,9.9-.2-.2-.6-.5-.9-.7,2.5-1.8,4.1-5.5,4.9-9.2h-1.2c-.7,2.6-2.1,5.4-3.7,6.8-.2-.2-.6-.5-.9-.6,1.6-1.2,2.9-3.8,3.6-6.2h-1.3c-.5,1.1-1.1,2.1-1.7,2.9-.2-.2-.6-.5-.9-.6,1.2-1.3,2.1-3.5,2.6-5.8l1,.2c-.2.8-.4,1.6-.7,2.3h5.8Z"/>
    <path d="M342.6,484.1c-.3,1.7-.9,3.8-1.7,4.8-.1-.4-.4-.9-.6-1.2.6-.9,1.2-2.5,1.5-3.9l.8.3ZM343.9,483v7.7h-1v-7.7h-2.4v-1.1h2.4v-5h1v5h2.5v1.1h-2.5ZM341.4,481.4c0-.9-.4-2.3-.8-3.3l.8-.2c.4,1,.8,2.4.9,3.3l-.9.2ZM344.6,483.9c.3.4,1.4,2.5,1.6,3l-.8.8c-.3-.8-1.1-2.7-1.4-3.4l.6-.4ZM346.4,478.1c-.4,1.1-.8,2.5-1.2,3.4l-.7-.2c.4-.9.8-2.4,1-3.4l1,.2ZM352.2,486.4v4.2h-1v-4l-4.6.8-.2-1,4.8-.9v-8.6h1v8.4l1.8-.3.2,1-1.9.3ZM349.2,484.3c-.5-.6-1.6-1.3-2.5-1.8l.5-.8c.9.5,2,1.1,2.5,1.7l-.6.9ZM349.8,480.7c-.5-.6-1.5-1.4-2.4-1.9l.6-.8c.8.5,1.9,1.3,2.4,1.8l-.6.9Z"/>
  </g>
  <g>
    <path d="M303.9,455.9c-.3-.5-.9-1.5-1.4-2.2v6.9h-1.1v-6.6c-.6,1.5-1.4,3-2.2,3.9-.1-.3-.4-.8-.6-1,.9-1.1,2-3,2.6-4.7h-2.4v-1h2.5v-2.3c-.7.1-1.4.3-2.1.3,0-.2-.2-.6-.3-.9,1.7-.3,3.6-.7,4.8-1.2l.7.9c-.6.2-1.2.4-2,.6v2.5h2.2v1h-2.2v.3c.5.5,1.8,2.2,2.1,2.6l-.7.9ZM310.6,456.7v3.9h-1.1v-3.7l-4.9.8-.2-1.1,5.1-.8v-8.9h1.1v8.7l1.8-.3.2,1-1.9.3ZM307.7,454.7c-.5-.7-1.7-1.6-2.6-2.2l.7-.7c1,.6,2.1,1.5,2.7,2.1l-.7.7ZM308.1,450.8c-.5-.6-1.5-1.5-2.4-2.1l.7-.6c.9.6,2,1.4,2.4,2.1l-.8.7Z"/>
    <path d="M303.8,469.5c-.6.2-1.2.4-1.8.5v4.2c0,.6-.2.9-.6,1.1-.4.2-1,.2-2,.2,0-.3-.2-.7-.3-1,.7,0,1.4,0,1.5,0,.2,0,.3,0,.3-.3v-3.9l-1.8.5-.3-1.1c.6-.1,1.3-.3,2.1-.5v-3.3h-1.9v-1.1h1.9v-3h1.1v3h1.6v1.1h-1.6v3c.5-.2,1.1-.3,1.6-.5l.2,1ZM311.7,467.9c-.6,2.1-1.7,3.7-3,4.9,1.1.9,2.4,1.5,3.9,1.9-.2.2-.6.7-.7,1-1.6-.5-2.9-1.2-4-2.2-1.3,1-2.7,1.7-4.3,2.1-.1-.3-.4-.8-.6-1,1.5-.4,2.8-1,4.1-1.9-1-1.1-1.9-2.5-2.5-4.1h0s-.5,0-.5,0v-1h3.2v-2.2h-3.5v-1h3.5v-2.4h1.1v2.4h3.6v1h-3.6v2.2h2.6s.7.3.7.3ZM305.7,468.6c.5,1.3,1.3,2.5,2.2,3.4,1-.9,1.9-2.1,2.4-3.4h-4.6Z"/>
  </g>
  <g>
    <path d="M259.9,451.7c-.3,1.7-.9,3.8-1.7,5.1l-1-.4c.8-1.3,1.4-3.3,1.7-4.9l1,.3ZM266.3,459.4c.9,0,1-.5,1.1-2.9.3.2.8.4,1.1.5-.2,2.7-.5,3.5-2.2,3.5h-3c-1.6,0-2.1-.4-2.1-1.9v-.8c-1.1.7-2.2,1.4-3.4,1.9-.2-.3-.5-.7-.7-.9,1.5-.7,2.8-1.5,4.1-2.4v-5.9h1.2v4.9c2.6-2.2,4.7-4.9,6-7.7l1.1.4c-1.7,3.2-4.1,6.3-7.2,8.6v1.6c0,.7.2.8,1,.8h2.9ZM265,450.7c-.9-.8-2.5-2-3.7-2.9l.7-.8c1.3.8,2.9,2.1,3.7,2.8l-.7.9ZM268.6,452c1,1.5,2,3.4,2.4,4.8l-1,.5c-.4-1.3-1.4-3.3-2.4-4.8l1-.4Z"/>
    <path d="M262.6,471c-1,1.8-2.8,3.4-4.6,4.3-.2-.3-.5-.6-.8-.9,1.7-.8,3.5-2.3,4.4-3.9l1,.4ZM262,462.7c-1,1.2-2.6,2.4-4,3.2-.2-.3-.5-.6-.8-.8,1.3-.7,2.9-1.8,3.8-2.9l1,.4ZM262.3,466.8c-1,1.3-2.6,2.7-4,3.5-.2-.3-.5-.6-.8-.9,1.4-.7,3-1.9,3.8-3.1l1,.4ZM265.8,473.7c-1,.8-2.5,1.5-3.8,1.9-.1-.2-.5-.6-.7-.8,1.3-.4,2.8-1.1,3.5-1.8l1,.6ZM265.7,465c.1-.4.2-.9.3-1.4h-3.5v-1h8.4v1h-3.6c-.1.5-.3.9-.4,1.4h3.5v7.7h-7.2v-7.7h2.5ZM269.2,465.9h-5v1.4h5v-1.4ZM269.2,468.2h-5v1.5h5v-1.5ZM269.2,470.4h-5v1.5h5v-1.5ZM268.2,473.2c1,.5,2.3,1.3,3,1.8l-.9.7c-.6-.6-2-1.4-3-1.9l.8-.6Z"/>
    <path d="M259.9,483.7c-.6-.4-1.8-1.1-2.7-1.6l.6-.8c.9.4,2.1,1.1,2.8,1.5l-.6.9ZM257.7,489.7c.8-1.1,2-3.1,2.8-4.8l.8.7c-.8,1.6-1.8,3.4-2.7,4.8l-.9-.8ZM258.6,477.2c.9.5,2.1,1.2,2.7,1.6l-.7.9c-.6-.4-1.8-1.2-2.7-1.8l.6-.8ZM270,489.3c0,.6-.1,1-.6,1.1-.5.2-1.2.2-2.3.2,0-.3-.2-.8-.3-1.1.9,0,1.6,0,1.9,0,.2,0,.3,0,.3-.3v-2.8c-1.8.5-3.6.9-5.1,1.2l-.4-1c1.4-.3,3.4-.7,5.4-1.2v-3.3h-5.6v3.1c0,1.7-.1,3.9-1,5.4-.2-.2-.6-.5-.9-.7.8-1.4.8-3.2.8-4.7v-4.1h3.4v-4.3h1.1v4.3h3.3v8ZM263.4,480.7c-.2-.8-.9-2-1.5-2.8l.9-.4c.7.8,1.3,2,1.6,2.7l-1,.5ZM264.2,483.2c1.3.3,3,.8,3.9,1.2l-.4.8c-.9-.5-2.5-1.1-3.9-1.3l.4-.7ZM270.6,477.8c-.5,1-1.2,2.1-1.7,2.8l-1-.4c.5-.8,1.2-2,1.6-2.8l1.1.4Z"/>
    <path d="M262.9,503.9c-1.2.7-3.1,1.4-4.6,1.8-.2-.2-.6-.6-.8-.8,1.5-.3,3.4-.8,4.4-1.4l1,.4ZM266.5,503.5c1.6.4,3.2,1,4.2,1.5l-.8.7c-1-.5-2.7-1.1-4.4-1.6l.6-.5h-6.6v-4.8c-.4.1-.8.2-1.3.3-.1-.3-.3-.7-.5-.9,1.9-.3,3-.8,3.6-1.4h-2.5c.1-.7.3-1.6.4-2.4h3v-.9h-3.7v-.7h3.7v-.8h1v.8h2.3v-.8h1v.8h3.3v2.3h-3.3v.9h4.3s0,.2,0,.4c0,.8-.2,1.2-.4,1.4-.2.2-.4.3-.7.3-.1,0-.2,0-.4,0v5.3h-2.6ZM259.8,495.1c0,.3,0,.6-.1.9h2c.1-.3.2-.6.2-.9h-2.1ZM267.9,498.5h-7.5v.9h7.5v-.9ZM267.9,500.2h-7.5v.9h7.5v-.9ZM260.4,502.7h7.5v-.9h-7.5v.9ZM262.5,496.8c-.2.4-.6.8-1.1,1.1h6.7c0-.2-.1-.3-.2-.5.5,0,.9,0,1,0s.3,0,.3-.1c0,0,.1-.2.2-.5h-3.2v1h-1v-1h-2.8ZM265.2,495.1h-2.3c0,.3,0,.6-.2.9h2.5v-.9ZM262.9,494.4h2.3v-.9h-2.3v.9ZM266.3,493.5v.9h2.3v-.9h-2.3Z"/>
  </g>
  <g>
    <path d="M229.2,458.4v1.1h-13.4v-1.1h6v-8.6h-5.2v-1.1h11.8v1.1h-5.4v8.6h6.1Z"/>
    <path d="M221.2,473.3c-1.1.8-3,1.6-4.6,1.9-.1-.3-.5-.6-.7-.8,1.5-.3,3.4-.8,4.4-1.5l.8.4ZM229.1,471.2v.9h-6v3.6h-1.1v-3.6h-5.9v-.9h5.9v-1.1h-4.5v-.9h4.5v-1.1h-5.3v-.9h3.2c-.1-.4-.4-1-.8-1.4l.8-.2h-3.9v-.9h2.4c-.2-.6-.7-1.5-1.2-2.2l.9-.3c.5.7,1.1,1.6,1.3,2.2l-.8.3h1.8v-2.7h1v2.7h1.8v-2.7h1.1v2.7h1.8l-.6-.2c.4-.6.9-1.6,1.2-2.3l1.1.3c-.4.8-.9,1.6-1.3,2.2h2.3v.9h-3.9l1,.3c-.3.5-.7,1-1,1.4h3.4v.9h-5.4v1.1h4.7v.9h-4.7v1.1h6ZM220.2,465.6c.3.5.7,1.1.8,1.5l-.6.2h4.1l-.5-.2c.3-.4.7-1.1.9-1.5h-4.7ZM224.7,472.8c1.4.5,3.3,1.2,4.3,1.7l-.7.7c-1-.5-2.9-1.2-4.3-1.8l.7-.6Z"/>
  </g>
  <g>
    <path d="M182.8,454.9v.7h3.6v5h-1v-.6h-8.6v.6h-1v-5h3.7v-.7h-5.3v-.8h13.6v.8h-5ZM175,448.1h-.5v-.7h6.6v.7h-5.2v4.1c0,.5.2.7.7.7h3.2c.4,0,1,0,1.3,0,0,.2,0,.5.1.7-.3,0-.8,0-1.4,0h-3.3c-1.2,0-1.5-.4-1.5-1.5v-4ZM178.9,451h0c.7.4,1.5.9,1.9,1.3l-.5.5c-.4-.3-1-.8-1.6-1.2-.3.5-.8.9-1.8,1.3-.1-.2-.3-.4-.5-.6,1.1-.3,1.6-.9,1.8-1.3h-1.9v-.6h2v-.8h-.9c-.2.3-.4.5-.6.7-.1-.1-.4-.3-.6-.4.5-.5.9-1,1.1-1.6l.7.2c0,.2-.1.3-.2.5h3v.6h-1.7v.7h0c0,0,2,0,2,0v.6h-2.1ZM185.3,459.4v-1.7h-2.1c-1.1,0-1.3-.2-1.3-.9v-.4h-1.6c-.2.7-.9,1.3-3,1.7-.1-.2-.3-.5-.5-.7,1.7-.2,2.4-.6,2.6-1h-2.7v3.1h8.6ZM178,458.2h6.2v.6h-6.2v-.6ZM181.9,454.9h-1.6v.7h1.6v-.7ZM181.6,450.3c-.1-.2-.4-.6-.6-.7,1.1-.5,1.3-1,1.3-1.5v-.8h3.6v1.4c0,.3,0,.4.2.4h.7c.2,0,.4,0,.6,0,0,.2,0,.5,0,.8-.2,0-.4,0-.7,0h-.8c-.8,0-1-.3-1-1.1v-.6h-1.8c0,.7-.3,1.5-1.4,2h4.3s.6.2.6.2c-.4.8-.9,1.5-1.5,2,.7.3,1.4.7,1.9.9l-.4.7c-.5-.3-1.3-.7-2.1-1.1-.8.5-1.7.9-2.7,1.1-.1-.2-.3-.5-.5-.7.8-.2,1.6-.5,2.3-.8-.6-.3-1.2-.6-1.8-.8l.4-.6c.7.3,1.4.6,2.2.9.4-.3.8-.7,1.1-1.1h-3.8v-.6h0ZM182.8,456.3v.4c0,.3,0,.3.5.3h1.7c.1,0,.2,0,.3,0v-.8h-2.5Z"/>
    <path d="M177.3,464.3v3.8c0,2.3-.3,5.5-2.1,7.5-.1-.2-.6-.6-.8-.8,1.1-1.3,1.6-3,1.8-4.6-.6.4-1.2.8-1.8,1.1l-.4-1c.6-.3,1.4-.7,2.3-1.2,0-.4,0-.8,0-1.1v-4.8h5.3c-.1-.4-.3-.8-.4-1.2l1.1-.2c.2.4.4,1,.5,1.4h5.1v1h-10.5ZM175.1,467.9c-.2-.8-.6-2-.9-3l.8-.3c.4.9.8,2.2,1,2.9l-.9.4ZM187.4,467.2c-.4.4-.8.8-1.2,1.1.6.4,1.2.8,1.8,1-.2.2-.5.5-.7.8-.4-.2-.9-.4-1.3-.7v3h-2.9v2.3c0,.5-.1.8-.5.9-.4.2-1,.2-2,.2,0-.3-.2-.7-.4-.9.7,0,1.4,0,1.5,0,.2,0,.3,0,.3-.2v-2.2h-2.8v-3c-.4.3-.8.5-1.3.8-.1-.3-.5-.6-.7-.7.7-.3,1.3-.7,1.9-1.1-.3-.3-.8-.7-1.2-.9l.6-.5c.4.2.9.6,1.2.9.4-.4.7-.7,1-1.1h-2.8v-.9h3.4c.2-.4.4-.9.5-1.3l1.1.2c-.1.4-.3.8-.5,1.1h5.2v.9h-3.2c.3.4.7.8,1.1,1.2.4-.3.9-.8,1.1-1.1l.7.5ZM180.6,472.9c-.7.8-1.6,1.8-2.4,2.4-.2-.2-.6-.5-.9-.7.8-.6,1.6-1.4,2.2-2.1l1,.3ZM185,469h-4.8v.9h4.8v-.9ZM185,470.6h-4.8v.9h4.8v-.9ZM184.7,468.3c-.5-.5-1-1.1-1.4-1.7h-1.4c-.4.6-.8,1.2-1.4,1.7h4.1ZM185.2,472.6c.8.7,1.8,1.7,2.3,2.3l-.8.6c-.5-.6-1.5-1.6-2.3-2.4l.8-.5Z"/>
    <path d="M178.7,477.3c-.4,1.1-1,2.2-1.6,3.2v10.1h-1.1v-8.5c-.5.7-1,1.3-1.6,1.9-.1-.2-.4-.8-.6-1.1,1.5-1.4,2.9-3.6,3.8-5.9l1,.3ZM181.4,486.3c-.7,1.3-1.7,2.7-2.5,3.7-.2-.2-.6-.5-.9-.6.9-.9,1.8-2.2,2.4-3.3l1,.3ZM183.5,485.2v5.5h-1.1v-5.5h-4.3v-1h4.3v-1.8h-3.2v-4.7h7.7v4.7h-3.4v1.8h4.2v1h-4.2ZM180.2,481.4h5.6v-2.7h-5.6v2.7ZM185.2,485.9c1,1.1,2.1,2.5,2.6,3.4l-.9.6c-.5-.9-1.6-2.4-2.5-3.4l.9-.5Z"/>
    <path d="M177.7,492.3c-.3,1-.6,2-1,2.9v10.4h-1v-8.4c-.4.6-.7,1.2-1.1,1.7,0-.3-.4-.9-.6-1.1,1.1-1.4,2.1-3.6,2.7-5.8l1,.3ZM180.9,497.5c-.2,2.1-.6,3.8-1.1,5.1,1.4,1.5,3.3,1.8,5.3,1.8.5,0,2.1,0,2.7,0-.1.2-.3.7-.4,1h-2.4c-2.2,0-4.2-.3-5.7-1.9-.5.9-1.1,1.5-1.7,2.1-.2-.2-.5-.6-.8-.7.7-.5,1.3-1.2,1.8-2.2-.5-.7-.9-1.7-1.3-2.8l.8-.3c.2.9.5,1.6.9,2.1.4-1,.6-2.1.8-3.5h-1.6c-.2.1-.4.2-.4.4,0-.2-.3-.6-.5-.8.3,0,.6-.4.9-.9.2-.4.9-1.6,1.4-2.9h-1.9v-1h2.3l.3-.2.7.4c-.6,1.5-1.3,2.9-2,4.1h1.3s.6.1.6.1ZM183.4,494h-1.9v-.8h1.9v-1.2h1v1.2h2.4v2h1.1v.9h-1.1v2.1h-2.4v1.1h2.7v.9h-2.7v1.2h3.2v.9h-3.2v1.8h-1v-1.8h-2.5v-.9h2.5v-1.2h-2.1v-.9h2.1v-1.1h-1.9v-.8h1.9v-1.2h-2.6v-.9h2.6v-1.2ZM184.3,494v1.2h1.6v-1.2h-1.6ZM185.9,496.1h-1.6v1.2h1.6v-1.2Z"/>
  </g>
  <g>
    <path d="M140,452.5v2h5.2v1h-5.2v3.7h5.9v1h-12.9v-1h5.8v-3.7h-5.1v-1h5.1v-2h-3.2v-.8c-.8.4-1.6.8-2.4,1.1-.2-.3-.5-.7-.8-1,2.8-.9,5.5-2.7,7-4.9l1,.5c-.1.2-.2.4-.4.5,1.5,1.6,4.1,3.2,6.4,3.9-.3.2-.6.7-.8,1-.8-.3-1.6-.7-2.4-1.1v.9h-3.3ZM135.9,455.9c.6.8,1.2,2,1.4,2.7l-1,.4c-.2-.7-.8-1.9-1.4-2.7l.9-.4ZM143.1,451.4c-1.4-.8-2.7-1.8-3.6-2.8-1,1.1-2.2,2-3.5,2.8h7.2ZM141.3,458.6c.5-.7,1.2-1.9,1.6-2.8l1.1.4c-.6.9-1.2,2-1.8,2.7l-.8-.4Z"/>
    <path d="M132.8,462.6h7v1h-7v-1ZM139.6,474.4c0,.5,0,.7-.4.9-.3.1-.8.2-1.6.2,0-.3-.2-.6-.3-.9.6,0,1,0,1.2,0,.2,0,.2,0,.2-.2v-5.2h-4.8v6.4h-.9v-7.3h6.6v6.1ZM139.1,467.5h-5.6v-3h5.6v3ZM136.7,472.3v2.9h-.9v-2.9h-1.5v-.8h2c.4-.6.8-1.5,1-2.1l.8.3c-.3.6-.7,1.3-1,1.8h1.1v.8h-1.5ZM138.1,465.3h-3.6v1.4h3.6v-1.4ZM135.2,469.5c.4.6.7,1.3.9,1.7l-.7.3c-.1-.5-.5-1.2-.8-1.8l.6-.2ZM145.5,475.7c0-.4-.1-.8-.3-1.2-1.7.3-3.5.6-4.9.9l-.3-1c.7,0,1.5-.2,2.5-.4v-3.3h-2.2v-5.6h2.2v-2.8h1v2.8h2.2v5.6h-2.2v3.2l1.4-.3c-.2-.6-.4-1.3-.7-1.9l.8-.2c.6,1.3,1.1,3,1.2,4l-.9.3ZM141.2,469.6h1.5v-3.7h-1.5v3.7ZM144.8,465.9h-1.4v3.7h1.4v-3.7Z"/>
  </g>
  <g>
    <path d="M95,454.3c-.2,1.3-.5,2.4-1,3.4,1,1.6,2.9,1.8,5.6,1.8s3.7,0,5.3-.2c-.2.2-.3.8-.4,1.1-1.4,0-3.3.1-4.9.1-3,0-4.9-.3-6-1.9-.6.9-1.2,1.7-2,2.2-.2-.2-.5-.6-.7-.8,1.4-.9,2.5-2.6,3-4.9h-1.6c-.4,0-.8,0-.9.2,0-.3-.3-.8-.4-1,.2,0,.5-.1.7-.4.3-.3,1.2-1.5,1.9-2.4h-2.4v-.9h3.3c0,0,.7.3.7.3-.6.9-1.8,2.4-2.6,3.4h1.9s.6.2.6.2ZM93.6,449.9c-.4-.6-1.2-1.7-1.9-2.4l.8-.5c.7.7,1.5,1.7,1.9,2.3l-.9.6ZM96.8,458.4h-1v-7.7h4.3c-.9-.4-2-.9-2.9-1.2l.7-.6c.6.2,1.4.5,2.1.8.7-.3,1.5-.8,2.1-1.2h-6.3v-.9h7.5c0,0,.7.5.7.5-.8.8-1.9,1.5-3,2.1.5.2.9.4,1.2.6h1.9v6.6c0,.5-.1.8-.5.9-.4.1-1,.2-2,.2,0-.3-.2-.6-.3-.9.7,0,1.3,0,1.5,0,.2,0,.3,0,.3-.3v-1.4h-2.7v2.4h-1v-2.4h-2.6v2.4ZM96.8,451.6v1.3h2.6v-1.3h-2.6ZM99.4,455.1v-1.4h-2.6v1.4h2.6ZM103,451.6h-2.7v1.3h2.7v-1.3ZM103,455.1v-1.4h-2.7v1.4h2.7Z"/>
    <path d="M96.5,465.4h-5.4v-.9h5.4v.9ZM96,474.8h-3.4v.7h-.9v-5h4.2v4.3ZM91.7,467.4v-.9h4.2v.9h-4.2ZM91.7,468.4h4.2v.9h-4.2v-.9ZM92.6,471.4v2.5h2.4v-2.5h-2.4ZM93.8,464.3c-.2-.5-.7-1.4-1-2l.8-.5c.4.6.9,1.4,1.1,1.9l-.8.5ZM103.2,462.8c0,6.1-.1,11.3.7,11.5,0,0,.2-.9.3-2,.2.3.5.7.6.8-.2,2.1-.6,2.6-1.3,2.3-1.5-.4-1.4-5.4-1.4-11.5h-2.5v4.4h2v1h-2v6.3h-1v-6.3h-2v-1h2v-4.4h-1.9v-1.1h6.5Z"/>
    <path d="M96.4,489.3c0,.6-.1.9-.5,1.1-.4.2-1,.2-2,.2,0-.3-.2-.8-.3-1.1.7,0,1.3,0,1.5,0,.2,0,.3,0,.3-.3v-3.7h-2.4c-.1,1.8-.4,3.6-1.1,5.1-.2-.2-.6-.4-.9-.5,1-2.1,1.1-5.1,1.1-7.3v-5.4h4.3v11.8ZM95.3,484.6v-2.5h-2.3v.8c0,.5,0,1.1,0,1.7h2.3ZM93.1,478.6v2.5h2.3v-2.5h-2.3ZM104.4,482.8c-.4,2-1.1,3.7-2.1,5.1.7.8,1.6,1.5,2.5,2-.3.2-.6.6-.7.9-.9-.5-1.7-1.2-2.4-2-.7.8-1.4,1.4-2.3,1.9-.2-.3-.4-.6-.7-.8.8-.5,1.6-1.1,2.3-1.9-.8-1.2-1.5-2.7-2-4.2h-.4v7h-1v-13.1h6.3v2.9c0,.6-.1.9-.6,1-.5.2-1.2.2-2.4.2,0-.3-.2-.7-.4-.9.9,0,1.7,0,1.9,0,.2,0,.3,0,.3-.2v-1.8h-4.2v4h5.1s.6.2.6.2ZM100.1,483.7c.4,1.2.9,2.4,1.6,3.4.6-1,1.2-2.1,1.5-3.4h-3.1Z"/>
    <path d="M95.4,500.6c.3-.6.6-1.5.8-2.4h-1.4v6.2c0,.6-.1.9-.5,1.1-.4.2-1,.2-1.9.2,0-.3-.2-.7-.3-1,.6,0,1.2,0,1.4,0,.2,0,.2,0,.2-.2v-4.8c-.6,1.4-1.4,2.8-2.2,3.7-.1-.3-.4-.8-.6-1,.9-.9,1.9-2.5,2.4-4h-2.3v-1h4c-.8-.7-2.2-1.5-3.3-2l.7-.7c.5.2,1,.4,1.5.7.6-.4,1.1-1,1.6-1.5h-4.2v-1h5.2s.7.4.7.4c-.6.9-1.5,1.9-2.4,2.5.5.3.9.6,1.3.9l-.6.6h1.3c0,0,.7.2.7.2,0,.3-.2.5-.2.8,1-.3,1.9-.7,2.7-1.2-.6-.5-1.1-1.2-1.5-1.8-.4.4-.7.8-1.1,1.1-.2-.2-.6-.5-.9-.6,1.2-.9,2.2-2.2,2.8-3.7l1.1.3c-.2.4-.4.9-.7,1.3h5v.9h-1.2c-.4,1-1,1.9-1.8,2.5.9.6,2.1,1.1,3.3,1.3-.2.2-.6.7-.7,1-1.3-.3-2.4-.9-3.4-1.6-.9.7-2.1,1.2-3.3,1.5,0-.2-.2-.4-.4-.6-.3.9-.6,1.7-.9,2.3l-.8-.4ZM104.2,500.3s0,.3,0,.5c-.3,2.8-.6,3.9-1,4.4-.3.3-.5.3-.9.4-.4,0-1,0-1.7,0,0-.3-.1-.8-.3-1,.6,0,1.2,0,1.5,0s.4,0,.5-.2c.3-.3.5-1.1.7-3.2h-2.5c-.5,1.9-1.6,3.5-4,4.4-.1-.3-.4-.7-.7-.9,2.1-.8,3-2,3.5-3.5h-2.3v-.9h2.6c0-.5.1-1,.2-1.5h1.1c0,.5-.1,1-.2,1.5h3.5ZM99,494.5c.4.7,1,1.4,1.7,1.9.6-.5,1.1-1.2,1.5-1.9h-3.1Z"/>
  </g>
  <g>
    <path d="M54.1,447.1h1.1v7c0,2.1-.6,5.2-4.2,6.8-.2-.3-.5-.6-.8-.8,1.9-.8,2.8-2,3.4-3.3-1.3.3-2.7.5-3.7.7l-.2-1.1c1.1-.2,2.7-.4,4.3-.7.1-.6.2-1.2.2-1.6v-.4h-3.8v-1h3.8v-2.3h-4v-1h4v-2.2ZM63.1,457h-4.5v3.6h-1.1v-13.6h1.1v2.2h4.3v1h-4.3v2.3h4v1h-4v2.4h4.5v1Z"/>
    <path d="M52.1,466.7c-.3,1.7-.9,3.8-1.7,5.1l-1-.4c.8-1.3,1.4-3.3,1.7-4.9l1,.3ZM58.5,474.4c.9,0,1-.5,1.1-2.9.3.2.8.4,1.1.5-.2,2.7-.5,3.5-2.2,3.5h-3c-1.6,0-2.1-.4-2.1-1.9v-.8c-1.1.7-2.2,1.4-3.4,1.9-.2-.3-.5-.7-.7-.9,1.5-.7,2.8-1.5,4.1-2.4v-5.9h1.2v4.9c2.6-2.2,4.7-4.9,6-7.7l1.1.4c-1.7,3.2-4.1,6.3-7.2,8.6v1.6c0,.7.2.8,1,.8h2.9ZM57.2,465.7c-.9-.8-2.5-2-3.7-2.9l.7-.8c1.3.8,2.9,2.1,3.7,2.8l-.7.9ZM60.9,467c1,1.5,2,3.4,2.4,4.8l-1,.5c-.4-1.3-1.4-3.3-2.4-4.8l1-.4Z"/>
    <path d="M56.8,485.1c-.1.4-.3.8-.4,1.1h5.6v3.4c0,.5,0,.8-.5.9-.4.2-.9.2-1.7.2,0-.3-.2-.7-.4-.9.6,0,1.1,0,1.3,0,.2,0,.2,0,.2-.2v-2.5h-2.3v3.5h-1v-3.5h-2.3v3.5h-1v-3.5h-2.2v3.6h-1.1v-4.5h4.3c.1-.3.2-.7.3-1.1h-5.8v-.9h13v.9h-6.1ZM51.1,482.8h-1.1v-3.2h5.7v-1.1h-5.1v-.9h11.3v.9h-5.1v1.1h5.8v3.2h-1.1v-2.3h-4.7v3.3h-1.1v-3.3h-4.7v2.3ZM51.3,483c.9-.1,2.2-.3,3.6-.5v.7c-1.1.3-2.2.5-3.2.7l-.3-.9ZM52,480.7c.9.2,2.2.5,2.9.8l-.3.7c-.7-.3-1.9-.7-2.9-.9l.3-.6ZM60.9,483.9c-.8-.3-2.3-.6-3.5-.8l.3-.7c1.2.1,2.7.4,3.5.7l-.2.8ZM60.9,481.3c-.9.3-2.1.7-2.9.8l-.4-.6c.9-.2,2.1-.7,2.8-.9l.5.6Z"/>
    <path d="M52.2,498.7c-.6-.4-1.8-1.1-2.7-1.6l.6-.8c.9.4,2.1,1.1,2.8,1.5l-.6.9ZM49.9,504.7c.8-1.1,2-3.1,2.8-4.8l.8.7c-.8,1.6-1.8,3.4-2.7,4.8l-.9-.8ZM50.9,492.2c.9.5,2.1,1.2,2.7,1.6l-.7.9c-.6-.4-1.8-1.2-2.7-1.8l.6-.8ZM62.3,504.3c0,.6-.1,1-.6,1.1-.5.2-1.2.2-2.3.2,0-.3-.2-.8-.3-1.1.9,0,1.6,0,1.9,0,.2,0,.3,0,.3-.3v-2.8c-1.8.5-3.6.9-5.1,1.2l-.4-1c1.4-.3,3.4-.7,5.4-1.2v-3.3h-5.6v3.1c0,1.7-.1,3.9-1,5.4-.2-.2-.6-.5-.9-.7.8-1.4.8-3.2.8-4.7v-4.1h3.4v-4.3h1.1v4.3h3.3v8ZM55.6,495.7c-.2-.8-.9-2-1.5-2.8l.9-.4c.7.8,1.3,2,1.6,2.7l-1,.5ZM56.4,498.2c1.3.3,3,.8,3.9,1.2l-.4.8c-.9-.5-2.5-1.1-3.9-1.3l.4-.7ZM62.8,492.8c-.5,1-1.2,2.1-1.7,2.8l-1-.4c.5-.8,1.2-2,1.6-2.8l1.1.4Z"/>
    <path d="M55.1,518.9c-1.2.7-3.1,1.4-4.6,1.8-.2-.2-.6-.6-.8-.8,1.5-.3,3.4-.8,4.4-1.4l1,.4ZM58.7,518.5c1.6.4,3.2,1,4.2,1.5l-.8.7c-1-.5-2.7-1.1-4.4-1.6l.6-.5h-6.6v-4.8c-.4.1-.8.2-1.3.3-.1-.3-.3-.7-.5-.9,1.9-.3,3-.8,3.6-1.4h-2.5c.1-.7.3-1.6.4-2.4h3v-.9h-3.7v-.7h3.7v-.8h1v.8h2.3v-.8h1v.8h3.3v2.3h-3.3v.9h4.3s0,.2,0,.4c0,.8-.2,1.2-.4,1.4-.2.2-.4.3-.7.3-.1,0-.2,0-.4,0v5.3h-2.6ZM52,510.1c0,.3,0,.6-.1.9h2c.1-.3.2-.6.2-.9h-2.1ZM60.2,513.5h-7.5v.9h7.5v-.9ZM60.2,515.2h-7.5v.9h7.5v-.9ZM52.7,517.7h7.5v-.9h-7.5v.9ZM54.7,511.8c-.2.4-.6.8-1.1,1.1h6.7c0-.2-.1-.3-.2-.5.5,0,.9,0,1,0s.3,0,.3-.1c0,0,.1-.2.2-.5h-3.2v1h-1v-1h-2.8ZM57.5,510.1h-2.3c0,.3,0,.6-.2.9h2.5v-.9ZM55.2,509.4h2.3v-.9h-2.3v.9ZM58.5,508.5v.9h2.3v-.9h-2.3Z"/>
  </g>
  <line class="st2" x1="36.4" y1="434.4" x2="526.3" y2="434.4"/>
  <g>
    <path d="M501.9,490.2l.7-.9c.6.6,1.4,1.2,2.7,1.2s2.3-.9,2.3-2.4-.9-2.4-2.3-2.4-1.2.2-1.8.7l-.7-.5.3-5.1h5.4v1.2h-4.2l-.3,3.2c.5-.3,1-.4,1.6-.4,1.8,0,3.3,1,3.3,3.4s-1.7,3.6-3.6,3.6-2.8-.7-3.5-1.5Z"/>
    <path d="M510.5,486.1c0-3.6,1.3-5.5,3.4-5.5s3.4,1.9,3.4,5.5-1.3,5.6-3.4,5.6-3.4-2-3.4-5.6ZM516,486.1c0-3.1-.8-4.4-2.1-4.4s-2.1,1.3-2.1,4.4.8,4.5,2.1,4.5,2.1-1.3,2.1-4.5Z"/>
    <path d="M518.8,486.1c0-3.6,1.3-5.5,3.4-5.5s3.4,1.9,3.4,5.5-1.3,5.6-3.4,5.6-3.4-2-3.4-5.6ZM524.3,486.1c0-3.1-.8-4.4-2.1-4.4s-2.1,1.3-2.1,4.4.8,4.5,2.1,4.5,2.1-1.3,2.1-4.5Z"/>
  </g>
  <rect class="st5" x="48" y="147.4" width="16.5" height="287.1"/>
  <rect class="st5" x="89.6" y="219.4" width="16.5" height="215.1"/>
  <rect class="st5" x="131.2" y="239.7" width="16.5" height="194.7"/>
  <rect class="st5" x="172.7" y="253" width="16.5" height="181.4"/>
  <rect class="st5" x="214.3" y="253" width="16.5" height="181.4"/>
  <rect class="st5" x="255.8" y="290.9" width="16.5" height="143.5"/>
  <rect class="st5" x="297.4" y="299.7" width="16.5" height="134.7"/>
  <rect class="st5" x="338.9" y="316.3" width="16.5" height="118.1"/>
  <rect class="st5" x="380.5" y="362.7" width="16.5" height="71.8"/>
  <rect class="st5" x="422" y="412.8" width="16.5" height="21.6"/>
  <rect class="st5" x="463.6" y="429.8" width="16.5" height="4.6"/>
  <rect class="st5" x="505.2" y="264.8" width="16.5" height="169.6"/>
  <g>
    <g>
      <path d="M156.8,122.5c-.4.7-.8,1.4-1.3,2h7.8v5.5h-1.2v-.7h-6.8v.7h-1.1v-4.1c-.8.8-1.6,1.4-2.6,2-.1-.2-.6-.7-.8-.9,2-1,3.6-2.6,4.7-4.5h-4.3v-1h4.9c.3-.5.5-1.1.7-1.7l1.1.3c-.2.5-.3,1-.6,1.5h7.2v1h-7.7ZM154,118.8h-2.7v-1h2.7v-1.4h1.1v1.4h2.4v1h-2.4v1.5h-1.1v-1.5ZM162.2,125.6h-6.8v2.8h6.8v-2.8ZM160.6,118.8h-2.4v-1h2.4v-1.4h1.1v1.4h2.8v1h-2.8v1.5h-1.1v-1.5Z"/>
      <path d="M173.9,116.8c-.1.2-.2.3-.3.5,1.9,2.2,4.1,3.5,6.4,4.5-.3.2-.6.6-.7.9-2.3-1.1-4.3-2.4-6.3-4.6-1.6,1.9-3.9,3.6-6.2,4.6-.2-.3-.5-.7-.8-.9,2.8-1.1,5.5-3.2,6.9-5.4l1,.5ZM173.6,128.6h5.7v1h-12.7v-1h1.9v-5.5h1.1v5.5h2.8v-8.2h1.2v3.4h4.3v1h-4.3v3.7Z"/>
      <path d="M186.6,127.7c-1.1.8-3,1.6-4.6,1.9-.1-.3-.5-.6-.7-.8,1.5-.3,3.4-.8,4.4-1.5l.8.4ZM194.4,125.6v.9h-6v3.6h-1.1v-3.6h-5.9v-.9h5.9v-1.1h-4.5v-.9h4.5v-1.1h-5.3v-.9h3.2c-.1-.4-.4-1-.8-1.4l.8-.2h-3.9v-.9h2.4c-.2-.6-.7-1.5-1.2-2.2l.9-.3c.5.7,1.1,1.6,1.3,2.2l-.8.3h1.8v-2.7h1v2.7h1.8v-2.7h1.1v2.7h1.8l-.6-.2c.4-.6.9-1.6,1.2-2.3l1.1.3c-.4.8-.9,1.6-1.3,2.2h2.3v.9h-3.9l1,.3c-.3.5-.7,1-1,1.4h3.4v.9h-5.4v1.1h4.7v.9h-4.7v1.1h6ZM185.6,120c.3.5.7,1.1.8,1.5l-.6.2h4.1l-.5-.2c.3-.4.7-1,.9-1.5h-4.7ZM190,127.2c1.4.5,3.3,1.2,4.3,1.7l-.7.7c-1-.5-2.9-1.2-4.3-1.8l.7-.6Z"/>
      <path d="M200.5,125.2c-.2-.4-.7-1.3-1.1-1.9v6.9h-1v-6.6c-.5,1.5-1.2,3.1-1.9,4-.1-.3-.4-.8-.6-1.1.8-1.1,1.7-3,2.2-4.7h-2v-1h2.2v-2.4c-.6.1-1.2.3-1.8.3,0-.3-.2-.6-.3-.9,1.5-.3,3.3-.7,4.3-1.2l.7.9c-.5.2-1.2.4-1.8.6v2.7h1.7v1h-1.7v.3c.4.4,1.6,1.9,1.8,2.3l-.7.9ZM208.3,128.9c.3,0,.4-.2.4-1.8.2.2.7.3,1,.4-.1,1.9-.4,2.4-1.3,2.4h-1.3c-1,0-1.3-.3-1.3-1.4v-3.6h-1.4c-.3,2.4-.9,4.2-3.4,5.3-.1-.3-.4-.7-.7-.9,2.2-.9,2.8-2.4,3-4.4h-1.2v-4.3c-.2.2-.4.4-.5.5-.2-.2-.6-.6-.8-.8,1.1-.9,2.1-2.3,2.8-3.7l1,.3c-.6,1.3-1.4,2.5-2.3,3.5h6v4.4h-1.4v3.6c0,.4,0,.4.4.4h1ZM203.3,123.9h3.9v-2.4h-3.9v2.4ZM208.8,121.1c-.6-1.1-1.9-2.9-3-4.1l.8-.5c1.2,1.2,2.5,2.9,3.1,4l-.9.6Z"/>
      <path d="M224.6,127h-6.1v3.2h-1.2v-3.2h-6.1v-1h6.1v-1.2h1.2v1.2h6.1v1ZM215.2,123.1c-1.1.6-2.4,1.3-3.3,1.8l-.6-.9c.9-.4,2.3-1,3.7-1.7l.2.8ZM220.3,124.9c0-.2-.2-.5-.4-.8-3.9.4-4.4.4-4.7.6,0-.2-.2-.7-.3-1,.3,0,.7-.3,1.2-.7.3-.2.9-.8,1.6-1.6-1.7.1-2.1.2-2.3.3,0-.2-.2-.7-.3-.9.2,0,.4-.2.7-.5.2-.2.7-.8,1.2-1.5h-5.5v-1h6.1c-.2-.4-.5-.8-.7-1.2l1.1-.3c.3.4.7,1,.9,1.5h5.6v1h-6.3c-.5.7-.9,1.3-1.4,1.8h1.9c.3-.5.7-.9,1-1.4l.9.5c-1.2,1.4-2.5,2.7-3.8,3.7l2.6-.2c-.2-.3-.5-.7-.7-1l.8-.3c.7.8,1.4,1.8,1.7,2.5l-.9.4ZM212.5,119.4c.8.5,1.8,1.2,2.3,1.7l-.8.7c-.5-.5-1.4-1.3-2.2-1.8l.8-.6ZM223.4,125c-.6-.6-1.9-1.5-2.9-2.1l.8-.6c1,.6,2.3,1.4,3,2l-.8.7ZM223.7,119.9c-.7.7-1.5,1.4-2.2,1.9l-.8-.5c.7-.5,1.6-1.3,2.1-1.9l.9.6Z"/>
      <path d="M230.4,119.8c-.4.7-.8,1.3-1.3,2v8.4h-1v-7.2c-.6.6-1.1,1.2-1.7,1.6-.1-.2-.4-.8-.6-1,1.4-1,2.8-2.6,3.7-4.1l1,.3ZM230.1,116.8c-.9,1.3-2.3,2.7-3.5,3.6-.1-.2-.4-.6-.6-.8,1.2-.8,2.5-2.1,3.1-3.1l1,.4ZM235.7,128.8c.4,0,.9.1,1.3.1h2.8c-.2.2-.3.7-.3,1h-2.5c-2.2,0-3.8-.5-4.8-2.8-.4,1.2-.9,2.1-1.8,2.9-.1-.2-.6-.6-.8-.7,1.5-1.3,2.1-3.3,2.2-6h1.1c0,.9-.1,1.6-.3,2.3.5,1.6,1.2,2.5,2.1,2.9v-6.3h.2c-.2-.2-.6-.4-.8-.6,1.5-1.1,2.4-2.9,2.7-5.3h1.1c-.1,1-.3,1.8-.6,2.6,1,.8,2.1,1.9,2.6,2.6l-.8.8c-.5-.7-1.4-1.6-2.2-2.4-.5.9-1,1.7-1.7,2.3h.6v2.5h3.3v.9h-3.3v3.1ZM234.3,121.2c-.3-.4-.9-1-1.5-1.4-.5,1.1-1.2,2.1-1.9,2.8-.2-.2-.6-.6-.8-.8,1.4-1.2,2.3-3.1,2.7-5.4l1.1.2c-.2.8-.4,1.6-.6,2.3.6.5,1.3,1.1,1.6,1.5l-.5.9Z"/>
      <path d="M241,128.2c3.2-3.2,5-5.1,5-6.9s-.7-2.1-2-2.1-1.7.6-2.3,1.3l-.8-.8c.9-1,1.8-1.6,3.2-1.6s3.2,1.2,3.2,3.1-1.8,4-4.4,6.7c.6,0,1.2-.1,1.8-.1h3.1v1.2h-6.9v-.8Z"/>
      <path d="M250,127.8h2.4v-7.9h-1.9v-.9c1-.2,1.7-.4,2.3-.8h1.1v9.6h2.2v1.1h-6v-1.1Z"/>
      <path d="M257.6,121.2c0-2.2,1-3.4,2.5-3.4s2.5,1.2,2.5,3.4-1,3.5-2.5,3.5-2.5-1.3-2.5-3.5ZM261.6,121.2c0-1.8-.6-2.6-1.5-2.6s-1.5.9-1.5,2.6.6,2.6,1.5,2.6,1.5-.9,1.5-2.6ZM266.5,117.8h.9l-6.1,11.4h-.9l6.1-11.4ZM265.3,125.7c0-2.2,1-3.4,2.5-3.4s2.5,1.2,2.5,3.4-1,3.5-2.5,3.5-2.5-1.3-2.5-3.5ZM269.2,125.7c0-1.8-.6-2.6-1.5-2.6s-1.5.9-1.5,2.6.6,2.6,1.5,2.6,1.5-.9,1.5-2.6Z"/>
      <path d="M278.6,118.6v2.7l.2-.2c1.8.9,4.1,2.2,5.3,3.1l-.8,1c-1-.8-3-2.1-4.7-3v7.9h-1.2v-11.5h-5.7v-1.1h13.2v1.1h-6.3Z"/>
      <path d="M291.6,119.9h-5.1v-.9h5.1v.9ZM287.1,122.9h4v.9h-4v-.9ZM291.1,129.2h-3.1v.7h-.9v-5h4.1v4.3ZM291.1,121.8h-4v-.9h4v.9ZM288,125.8v2.5h2.2v-2.5h-2.2ZM289.2,118.8c-.2-.5-.7-1.4-1.1-2l.8-.4c.4.6.9,1.4,1.1,2l-.9.4ZM299.8,128.7c0,.6-.1.9-.5,1.1s-1,.2-2,.2c0-.3-.2-.7-.3-1,.8,0,1.4,0,1.7,0,.2,0,.3,0,.3-.3v-5.7h-5.5c0,2.2-.2,5.1-1.4,7.1-.2-.2-.6-.5-.8-.6,1.1-2,1.2-4.8,1.2-6.9v-5.6h7.3v11.6ZM293.3,118.1v1.6h2.2v-1.6h-2.2ZM293.3,122.1h2.2v-1.5h-2.2v1.5ZM294.8,127.5v.7h-.8v-4.2h4v3.5h-3.2ZM294.8,124.9v1.8h2.3v-1.8h-2.3ZM298.8,118.1h-2.3v1.6h2.3v-1.6ZM298.8,122.1v-1.5h-2.3v1.5h2.3Z"/>
      <path d="M315,128.5v1.1h-13.3v-1.1h6v-2.8h-4.7v-1h4.7v-2h1.1v2h4.9v1h-4.9v2.8h6.1ZM313.5,123.1c-.2-.3-.6-.7-1-1.1-8.1.4-8.9.4-9.5.6,0-.3-.2-.8-.4-1.1.3,0,.6-.3,1-.7.4-.3,1.4-1.3,2.2-2.5h-4v-1h12.5v1h-7.1c-.9,1.2-1.8,2.2-2.8,3.1l6.9-.3c-.6-.6-1.3-1.1-1.9-1.6l.9-.6c1.3,1,3,2.5,3.8,3.5l-.9.7Z"/>
      <path d="M317.2,127.8h2.4v-7.9h-2v-.9c1-.2,1.7-.4,2.3-.8h1v9.6h2.2v1.1h-6v-1.1Z"/>
      <path d="M324.6,127.7l.7-.9c.6.6,1.4,1.2,2.7,1.2s2.3-.9,2.3-2.4-.9-2.4-2.3-2.4-1.2.2-1.8.7l-.7-.5.3-5.1h5.4v1.2h-4.2l-.3,3.2c.5-.3,1-.4,1.6-.4,1.8,0,3.3,1,3.3,3.4s-1.7,3.6-3.6,3.6-2.8-.7-3.5-1.5Z"/>
      <path d="M333.1,121.2c0-2.2,1-3.4,2.5-3.4s2.5,1.2,2.5,3.4-1,3.5-2.5,3.5-2.5-1.3-2.5-3.5ZM337,121.2c0-1.8-.6-2.6-1.5-2.6s-1.5.9-1.5,2.6.6,2.6,1.5,2.6,1.5-.9,1.5-2.6ZM342,117.8h.9l-6.1,11.4h-.9l6.1-11.4ZM340.7,125.7c0-2.2,1-3.4,2.5-3.4s2.5,1.2,2.5,3.4-1,3.5-2.5,3.5-2.5-1.3-2.5-3.5ZM344.7,125.7c0-1.8-.6-2.6-1.5-2.6s-1.5.9-1.5,2.6.6,2.6,1.5,2.6,1.5-.9,1.5-2.6Z"/>
      <path d="M347.7,124.3c0-2.9.8-5.4,2.2-7.6l.9.4c-1.3,2.1-1.9,4.7-1.9,7.2s.6,5.1,1.9,7.2l-.9.4c-1.4-2.2-2.2-4.7-2.2-7.6Z"/>
      <path d="M365.7,124.2v1.1h-13.5v-1.1h3.4v-3.5h-2.8v-1.1h2.8v-3h1.1v3h4.3v-3h1.1v3h3v1.1h-3v3.5h3.5ZM357.5,126.6c-1.1,1.3-2.8,2.7-4.3,3.5-.2-.2-.6-.6-.9-.8,1.5-.8,3.1-2.1,4-3.2l1.2.5ZM356.8,124.2h4.3v-3.5h-4.3v3.5ZM361.1,126.1c1.4,1,3.2,2.4,4.2,3.3l-1,.7c-.9-.9-2.7-2.4-4.1-3.4l1-.6Z"/>
      <path d="M371.2,120.8h2.6v1h-2.6v.4c.6.6,2.1,2.4,2.5,2.9l-.7.9c-.3-.6-1.2-1.7-1.8-2.5v6.6h-1.1v-6.6c-.7,1.7-1.7,3.4-2.7,4.5-.1-.3-.4-.8-.6-1,1.1-1.1,2.3-3.2,3-5.1h-2.6v-1h2.9v-2.5c-.8.1-1.7.3-2.5.4,0-.3-.2-.6-.3-.9,2-.3,4.3-.7,5.6-1.2l.8.9c-.7.3-1.6.5-2.5.7v2.7ZM379.9,117.8v11.5h-1.1v-1.1h-3.3v1.2h-1.1v-11.6h5.5ZM378.8,127.1v-8.3h-3.3v8.3h3.3Z"/>
      <path d="M395.5,127.6h-13.1v-.7h6v-.8h-4.9v-.7h4.9v-.7h-4.5v-2.9h10.3v2.9h-4.7v.7h5.2v.7h-5.2v.8h6.1v.7ZM382.4,129.7c.7-.4,1.4-1.1,1.9-1.8l1,.3c-.4.7-1.1,1.5-1.9,1.9l-1-.4ZM383.7,120.1h-1v-2.3h2.7c-.2-.3-.5-.7-.7-1l1-.2c.3.4.7.9.9,1.3h1.8v-1.4h1.1v1.4h1.9c.3-.4.7-.9.9-1.3l1.1.2c-.3.4-.6.7-.9,1h2.7v2.3h-1.1v-1.6h-10.4v1.6ZM388.3,124.1v-1.6h-3.5v1.6h1.7c-.2-.3-.5-.8-.8-1.1l.6-.3c.3.3.7.8.8,1l-.6.4h1.7ZM385,121.2v-2h7.7v2h-7.7ZM386,120.6h5.6v-.8h-5.6v.8ZM387.6,128.2c.2.5.3,1.3.3,1.7h-1c0-.3-.2-1.1-.3-1.6h1ZM393,122.5h-3.6v1.6h3.6v-1.6ZM390.7,128.1c.3.5.6,1.2.7,1.7l-1.1.2c0-.4-.4-1.2-.6-1.7l1-.2ZM390.3,123.7c.3-.3.7-.9.9-1.2l.8.3c-.4.4-.7.8-1,1.1l-.6-.3ZM393.6,127.9c.7.5,1.5,1.3,1.9,1.9l-1.1.3c-.4-.5-1.2-1.3-1.8-1.9l1-.3Z"/>
      <path d="M397,131.5c1.3-2.1,1.9-4.7,1.9-7.2s-.6-5.1-1.9-7.2l.8-.4c1.4,2.2,2.2,4.7,2.2,7.6s-.8,5.4-2.2,7.6l-.8-.4Z"/>
    </g>
    <rect class="st5" x="124.8" y="116.3" width="15.3" height="15.3"/>
  </g>
  <text class="st0" transform="translate(.1 706.2)"><tspan x="0" y="0">8%</tspan></text>
  <text class="st0" transform="translate(.1 790.8)"><tspan x="0" y="0">6%</tspan></text>
  <text class="st0" transform="translate(.1 875.3)"><tspan x="0" y="0">4%</tspan></text>
  <text class="st0" transform="translate(.1 959.9)"><tspan x="0" y="0">2%</tspan></text>
  <text class="st0" transform="translate(.1 1044.4)"><tspan x="0" y="0">0%</tspan></text>
  <text class="st0" transform="translate(0 675.8)"><tspan x="0" y="0">企業稅變動對美國標普500企業每股盈餘影響，％</tspan></text>
  <rect class="st5" x="0" y="606.1" width="526.3" height="42.1" rx="21" ry="21"/>
  <text class="st4" transform="translate(50.5 637.2)"><tspan x="0" y="0">若美國企業稅下調，有利企業獲利成長</tspan></text>
  <text class="st1" transform="translate(513.2 1052.4)"><tspan x="0" y="0">標普</tspan><tspan x="-.2" y="30" xml:space="preserve">      </tspan><tspan x="0" y="50.2">平均</tspan></text>
  <text class="st1" transform="translate(471.9 1052.4)"><tspan x="0" y="0">公用事業</tspan></text>
  <text class="st1" transform="translate(430.3 1052.4)"><tspan x="0" y="0">不動產</tspan></text>
  <text class="st1" transform="translate(388.8 1052.4)"><tspan x="0" y="0">能源</tspan></text>
  <text class="st1" transform="translate(347.2 1052.4)"><tspan x="0" y="0">原物料</tspan></text>
  <text class="st1" transform="translate(305.6 1052.4)"><tspan x="0" y="0">科技</tspan></text>
  <text class="st1" transform="translate(264.1 1052.4)"><tspan x="0" y="0">必須消費</tspan></text>
  <text class="st1" transform="translate(222.5 1052.4)"><tspan x="0" y="0">工業</tspan></text>
  <text class="st1" transform="translate(181 1052.4)"><tspan x="0" y="0">醫療保健</tspan></text>
  <text class="st1" transform="translate(139.4 1052.4)"><tspan x="0" y="0">金融</tspan></text>
  <text class="st1" transform="translate(97.9 1052.4)"><tspan x="0" y="0">通訊服務</tspan></text>
  <text class="st1" transform="translate(56.3 1052.4)"><tspan x="0" y="0">非必需消費</tspan></text>
  <line class="st2" x1="36.4" y1="1040.5" x2="526.3" y2="1040.5"/>
  <text class="st0" transform="translate(501.4 1097.5)"><tspan x="0" y="0">500</tspan></text>
  <rect class="st5" x="48" y="753.4" width="16.5" height="287.1"/>
  <rect class="st5" x="89.6" y="825.4" width="16.5" height="215.1"/>
  <rect class="st5" x="131.2" y="845.8" width="16.5" height="194.7"/>
  <rect class="st5" x="172.7" y="859.1" width="16.5" height="181.4"/>
  <rect class="st5" x="214.3" y="859.1" width="16.5" height="181.4"/>
  <rect class="st5" x="255.8" y="897" width="16.5" height="143.5"/>
  <rect class="st5" x="297.4" y="905.8" width="16.5" height="134.7"/>
  <rect class="st5" x="338.9" y="922.4" width="16.5" height="118.1"/>
  <rect class="st5" x="380.5" y="968.7" width="16.5" height="71.8"/>
  <rect class="st5" x="422" y="1018.9" width="16.5" height="21.6"/>
  <rect class="st5" x="463.6" y="1035.8" width="16.5" height="4.6"/>
  <rect class="st5" x="505.2" y="870.9" width="16.5" height="169.6"/>
  <g>
    <text class="st0" transform="translate(150.4 735)"><tspan x="0" y="0">若企業稅率從21%下調至15%(共和黨)</tspan></text>
    <rect class="st5" x="124.8" y="722.3" width="15.3" height="15.3"/>
  </g>
</svg>